SplineFontDB: 3.2
FontName: jgs5
FullName: jgs5
FamilyName: jgs5
Weight: Regular
Copyright: Copyright (c) 2021, Adel Faure
UComments: "2021-8-9: Created with FontForge (http://fontforge.org)"
Version: 001.000
ItalicAngle: 0
UnderlinePosition: 0
UnderlineWidth: 0
Ascent: 9
Descent: 1
InvalidEm: 0
LayerCount: 2
Layer: 0 0 "Back" 1
Layer: 1 0 "Fore" 0
XUID: [1021 618 1572476504 12852732]
StyleMap: 0x0000
FSType: 0
OS2Version: 0
OS2_WeightWidthSlopeOnly: 0
OS2_UseTypoMetrics: 1
CreationTime: 1628519472
ModificationTime: 1632650828
OS2TypoAscent: 0
OS2TypoAOffset: 1
OS2TypoDescent: 0
OS2TypoDOffset: 1
OS2TypoLinegap: 1
OS2WinAscent: 0
OS2WinAOffset: 1
OS2WinDescent: 0
OS2WinDOffset: 1
HheadAscent: 0
HheadAOffset: 1
HheadDescent: 0
HheadDOffset: 1
OS2Vendor: 'PfEd'
MarkAttachClasses: 1
DEI: 91125
LangName: 1033
Encoding: UnicodeFull
UnicodeInterp: none
NameList: AGL For New Fonts
DisplaySize: -48
AntiAlias: 1
FitToEm: 0
WinInfo: 8626 19 14
BeginPrivate: 0
EndPrivate
BeginChars: 1114112 324

StartChar: exclam
Encoding: 33 33 33
Width: 5
Flags: HW
LayerCount: 2
Fore
SplineSet
2 3 m 25
 3 3 l 1
 3 9 l 25
 2 9 l 1
 2 3 l 25
2 -1 m 25
 2 1 l 29
 3 1 l 25
 3 -1 l 25
 2 -1 l 25
EndSplineSet
EndChar

StartChar: quotedbl
Encoding: 34 34 34
Width: 5
Flags: HW
LayerCount: 2
Fore
SplineSet
2 9 m 29
 2 8 l 29
 1 8 l 29
 1 7 l 29
 0 7 l 29
 0 8 l 29
 1 8 l 29
 1 9 l 29
 2 9 l 29
5 9 m 29
 4 9 l 5
 4 8 l 29
 3 8 l 29
 3 7 l 29
 4 7 l 29
 4 8 l 5
 5 8 l 29
 5 9 l 29
EndSplineSet
EndChar

StartChar: numbersign
Encoding: 35 35 35
Width: 5
Flags: HW
LayerCount: 2
Fore
SplineSet
0 7 m 1
 0 6 l 1
 1 6 l 1
 1 2 l 1
 0 2 l 1
 0 1 l 1
 1 1 l 1
 1 -1 l 1
 2 -1 l 1
 2 1 l 1
 3 1 l 1
 3 -1 l 1
 4 -1 l 5
 4 1 l 1
 5 1 l 1
 5 2 l 1
 4 2 l 1
 4 6 l 1
 5 6 l 1
 5 7 l 1
 4 7 l 1
 4 9 l 1
 3 9 l 1
 3 7 l 1
 2 7 l 1
 2 9 l 1
 1 9 l 1
 1 7 l 1
 0 7 l 1
2 6 m 1
 3 6 l 1
 3 2 l 1
 2 2 l 1
 2 6 l 1
EndSplineSet
EndChar

StartChar: dollar
Encoding: 36 36 36
Width: 5
Flags: HW
LayerCount: 2
Fore
SplineSet
1 5.099609375 m 1
 1 7 l 1
 2 7 l 1
 2 5.099609375 l 1
 1 5.099609375 l 1
1 5.099609375 m 1
 1 4 l 1
 2 4 l 1
 2 2 l 1
 1 2 l 1
 1 3 l 1
 0 3 l 1
 0 2 l 1
 1 2 l 1
 1 1 l 1
 2 1 l 1
 2 0 l 1
 3 0 l 1
 3 1 l 1
 4 1 l 1
 4 2 l 1
 3 2 l 1
 3 4 l 1
 4 4 l 1
 4 2 l 1
 5 2 l 1
 5 4 l 1
 4 4 l 1
 4 5.099609375 l 1
 3 5.099609375 l 1
 3 7 l 1
 4 7 l 1
 4 8 l 1
 3 8 l 1
 3 9 l 1
 2 9 l 1
 2 8 l 1
 1 8 l 1
 1 7 l 1
 0 7 l 1
 0 5.099609375 l 1
 1 5.099609375 l 1
4 7 m 1
 4 6 l 1
 5 6 l 1
 5 7 l 1
 4 7 l 1
EndSplineSet
EndChar

StartChar: percent
Encoding: 37 37 37
Width: 5
Flags: HW
LayerCount: 2
Fore
SplineSet
3 2 m 25
 3 0 l 25
 4 0 l 25
 4 2 l 25
 3 2 l 25
1 8 m 25
 1 6 l 25
 2 6 l 25
 2 8 l 25
 1 8 l 25
0 -1 m 25
 0 1 l 25
 1 1 l 25
 1 3 l 25
 2 3 l 25
 2 5.099609375 l 25
 3 5.099609375 l 25
 3 7 l 25
 4 7 l 25
 4 9 l 1
 5 9 l 29
 5 7 l 29
 4 7 l 1
 4 5.099609375 l 25
 3 5.099609375 l 25
 3 3 l 25
 2 3 l 25
 2 1 l 25
 1 1 l 25
 1 -1 l 25
 0 -1 l 25
EndSplineSet
EndChar

StartChar: ampersand
Encoding: 38 38 38
Width: 5
Flags: HW
LayerCount: 2
Fore
SplineSet
0 1 m 1
 0 4 l 1
 1 4 l 1
 1 1 l 1
 3 1 l 1
 3 3 l 1
 2 3 l 1
 2 4 l 1
 1 4 l 1
 1 5.099609375 l 1
 2 5.099609375 l 1
 2 6 l 1
 3 6 l 1
 3 7 l 1
 1 7 l 1
 1 5.099609375 l 1
 0 5.099609375 l 1
 0 7 l 1
 1 7 l 1
 1 8 l 1
 3 8 l 1
 3 7 l 1
 4 7 l 1
 4 6 l 1
 3 6 l 1
 3 5.099609375 l 1
 2 5.099609375 l 1
 2 4 l 1
 3 4 l 1
 3 3 l 1
 4 3 l 1
 4 5.099609375 l 1
 5 5.099609375 l 5
 5 3 l 5
 4 3 l 1
 4 1 l 1
 5 1 l 5
 5 0 l 5
 4 0 l 1
 4 1 l 1
 3 1 l 1
 3 0 l 1
 1 0 l 1
 1 1 l 1
 0 1 l 1
EndSplineSet
EndChar

StartChar: quotesingle
Encoding: 39 39 39
Width: 5
Flags: HW
LayerCount: 2
Fore
SplineSet
1 5 m 29
 1 6 l 29
 2 6 l 29
 2 7 l 29
 3 7 l 29
 3 8 l 29
 4 8 l 29
 4 7 l 29
 3 7 l 29
 3 6 l 29
 2 6 l 29
 2 5 l 29
 1 5 l 29
EndSplineSet
EndChar

StartChar: parenleft
Encoding: 40 40 40
Width: 5
Flags: HW
LayerCount: 2
Fore
SplineSet
5 9 m 1
 5 8 l 1
 4 8 l 1
 4 6 l 1
 3 6 l 1
 3 2 l 1
 4 2 l 1
 4 0 l 1
 5 0 l 1
 5 -1 l 1
 4 -1 l 1
 4 0 l 1
 3 0 l 1
 3 2 l 1
 2 2 l 1
 2 6 l 1
 3 6 l 1
 3 8 l 1
 4 8 l 1
 4 9 l 1
 5 9 l 1
5 -1 m 1025
EndSplineSet
EndChar

StartChar: parenright
Encoding: 41 41 41
Width: 5
Flags: HW
LayerCount: 2
Fore
SplineSet
0 9 m 25
 0 8 l 25
 1 8 l 25
 1 6 l 25
 2 6 l 25
 2 2 l 25
 1 2 l 25
 1 0 l 25
 0 0 l 25
 0 -1 l 25
 1 -1 l 25
 1 0 l 25
 2 0 l 25
 2 2 l 25
 3 2 l 25
 3 6 l 25
 2 6 l 25
 2 8 l 25
 1 8 l 25
 1 9 l 25
 0 9 l 25
EndSplineSet
EndChar

StartChar: asterisk
Encoding: 42 42 42
Width: 5
Flags: HW
LayerCount: 2
Fore
SplineSet
2 8 m 25
 3 8 l 25
 3 6 l 25
 4 6 l 25
 4 7 l 1
 5 7 l 29
 5 6 l 29
 4 6 l 1
 4 5.099609375 l 1
 5 5.099609375 l 29
 5 4 l 29
 4 4 l 1
 4 3 l 1
 5 3 l 29
 5 2 l 29
 4 2 l 1
 4 3 l 25
 3 3 l 25
 3 1 l 25
 2 1 l 25
 2 3 l 25
 1 3 l 25
 1 2 l 25
 0 2 l 25
 0 3 l 25
 1 3 l 25
 1 4 l 25
 0 4 l 25
 0 5.099609375 l 25
 1 5.099609375 l 25
 1 6 l 25
 0 6 l 25
 0 7 l 25
 1 7 l 25
 1 6 l 25
 2 6 l 25
 2 8 l 25
EndSplineSet
EndChar

StartChar: plus
Encoding: 43 43 43
Width: 5
Flags: HW
LayerCount: 2
Fore
SplineSet
3 9 m 25
 3 4 l 1
 5 4 l 25
 5 3 l 25
 3 3 l 1
 3 -1 l 25
 2 -1 l 25
 2 3 l 25
 0 3 l 25
 0 4 l 25
 2 4 l 25
 2 9 l 25
 3 9 l 25
EndSplineSet
EndChar

StartChar: comma
Encoding: 44 44 44
Width: 5
Flags: HW
LayerCount: 2
Fore
SplineSet
1 0 m 25
 1 1 l 25
 2 1 l 25
 2 2 l 25
 3 2 l 25
 3 1 l 25
 2 1 l 25
 2 0 l 25
 1 0 l 25
EndSplineSet
EndChar

StartChar: hyphen
Encoding: 45 45 45
Width: 5
Flags: HW
LayerCount: 2
Fore
SplineSet
0 4 m 1
 5 4 l 1
 5 3 l 5
 0 3 l 1
 0 4 l 1
EndSplineSet
EndChar

StartChar: period
Encoding: 46 46 46
Width: 5
Flags: HW
LayerCount: 2
Fore
SplineSet
3 0 m 29
 3 2 l 29
 2 2 l 29
 2 0 l 29
 3 0 l 29
EndSplineSet
EndChar

StartChar: slash
Encoding: 47 47 47
Width: 5
Flags: HW
LayerCount: 2
Fore
SplineSet
0 -1 m 25
 0 1 l 25
 1 1 l 25
 1 3 l 25
 2 3 l 25
 2 5.099609375 l 25
 3 5.099609375 l 25
 3 7 l 25
 4 7 l 25
 4 9 l 1
 5 9 l 29
 5 7 l 29
 4 7 l 1
 4 5.099609375 l 25
 3 5.099609375 l 25
 3 3 l 25
 2 3 l 25
 2 1 l 25
 1 1 l 25
 1 -1 l 25
 0 -1 l 25
EndSplineSet
EndChar

StartChar: zero
Encoding: 48 48 48
Width: 5
Flags: HW
LayerCount: 2
Fore
SplineSet
3 1 m 1
 3 0 l 1
 1 0 l 1
 1 1 l 1
 0 1 l 1
 0 6 l 1
 1 6 l 1
 1 7 l 1
 3 7 l 1
 3 6 l 1
 4 6 l 1
 4 1 l 1
 3 1 l 1
3 1 m 1
 3 4 l 1
 2 4 l 1
 2 3 l 1
 1 3 l 1
 1 1 l 1
 3 1 l 1
1 6 m 1
 1 4 l 1
 2 4 l 1
 2 5.099609375 l 1
 3 5.099609375 l 1
 3 6 l 1
 1 6 l 1
EndSplineSet
EndChar

StartChar: one
Encoding: 49 49 49
Width: 5
InSpiro: 1
Flags: HW
LayerCount: 2
Fore
SplineSet
0 4 m 25
 0 5 l 25
 1 5 l 25
 1 6 l 25
 2 6 l 25
 2 7 l 25
 3 7 l 25
 3 0 l 25
 2 0 l 25
 2 5 l 25
 1 5 l 25
 1 4 l 25
 0 4 l 25
  Spiro
    0 4 v
    0 5 v
    1 5 v
    1 6 v
    2 6 v
    2 7 v
    3 7 v
    3 0 v
    2 0 v
    2 5 v
    1 5 v
    1 4 v
    0 0 z
  EndSpiro
EndSplineSet
EndChar

StartChar: two
Encoding: 50 50 50
Width: 5
Flags: HW
LayerCount: 2
Fore
SplineSet
0 5.099609375 m 25
 0 6 l 25
 1 6 l 25
 1 7 l 25
 3 7 l 25
 3 6 l 25
 4 6 l 25
 4 4 l 25
 3 4 l 25
 3 3 l 25
 2 3 l 25
 2 2 l 25
 1 2 l 25
 1 1 l 25
 4 1 l 25
 4 0 l 25
 0 0 l 25
 0 2 l 25
 1 2 l 25
 1 3 l 25
 2 3 l 25
 2 4 l 25
 3 4 l 25
 3 6 l 25
 1 6 l 25
 1 5.099609375 l 25
 0 5.099609375 l 25
EndSplineSet
EndChar

StartChar: three
Encoding: 51 51 51
Width: 5
Flags: HW
LayerCount: 2
Fore
SplineSet
0 5.099609375 m 25
 0 6 l 25
 1 6 l 25
 1 7 l 25
 3 7 l 25
 3 6 l 25
 4 6 l 25
 4 4 l 25
 3 4 l 25
 3 3 l 25
 4 3 l 25
 4 1 l 25
 3 1 l 25
 3 0 l 25
 1 0 l 25
 1 1 l 25
 0 1 l 25
 0 2 l 25
 1 2 l 25
 1 1 l 25
 3 1 l 25
 3 3 l 25
 1 3 l 25
 1 4 l 25
 3 4 l 25
 3 6 l 25
 1 6 l 25
 1 5.099609375 l 25
 0 5.099609375 l 25
EndSplineSet
EndChar

StartChar: four
Encoding: 52 52 52
Width: 5
Flags: HW
LayerCount: 2
Fore
SplineSet
2 0 m 1
 2 2 l 1
 0 2 l 1
 0 5.099609375 l 1
 1 5.099609375 l 1
 1 6 l 1
 2 6 l 1
 2 7 l 1
 3 7 l 1
 3 3 l 1
 4 3 l 1
 4 2 l 1
 3 2 l 1
 3 0 l 1
 2 0 l 1
1 5.099609375 m 1
 1 3 l 1
 2 3 l 1
 2 5.099609375 l 1
 1 5.099609375 l 1
EndSplineSet
EndChar

StartChar: five
Encoding: 53 53 53
Width: 5
Flags: HW
LayerCount: 2
Fore
SplineSet
4 7 m 25
 0 7 l 25
 0 3 l 25
 3 3 l 25
 3 1 l 25
 0 1 l 25
 0 0 l 25
 3 0 l 25
 3 1 l 25
 4 1 l 25
 4 3 l 25
 3 3 l 25
 3 4 l 25
 1 4 l 25
 1 6 l 25
 4 6 l 25
 4 7 l 25
EndSplineSet
EndChar

StartChar: six
Encoding: 54 54 54
Width: 5
Flags: HW
LayerCount: 2
Fore
SplineSet
4 5.099609375 m 1
 4 6 l 1
 3 6 l 1
 3 7 l 1
 1 7 l 1
 1 6 l 1
 0 6 l 1
 0 1 l 1
 1 1 l 1
 1 3 l 1
 3 3 l 1
 3 1 l 1
 1 1 l 1
 1 0 l 1
 3 0 l 1
 3 1 l 1
 4 1 l 1
 4 3 l 1
 3 3 l 1
 3 4 l 1
 1 4 l 1
 1 6 l 1
 3 6 l 1
 3 5.099609375 l 1
 4 5.099609375 l 1
EndSplineSet
EndChar

StartChar: seven
Encoding: 55 55 55
Width: 5
Flags: HW
LayerCount: 2
Fore
SplineSet
0 7 m 25
 4 7 l 25
 4 4 l 25
 3 4 l 25
 3 3 l 25
 2 3 l 25
 2 2 l 25
 1 2 l 25
 1 0 l 25
 0 0 l 25
 0 2 l 25
 1 2 l 25
 1 3 l 25
 2 3 l 25
 2 4 l 25
 3 4 l 25
 3 6 l 25
 0 6 l 25
 0 7 l 25
EndSplineSet
EndChar

StartChar: eight
Encoding: 56 56 56
Width: 5
Flags: HW
LayerCount: 2
Fore
SplineSet
1 1 m 25
 3 1 l 25
 3 3 l 25
 1 3 l 25
 1 1 l 25
1 4 m 25
 3 4 l 25
 3 6 l 25
 1 6 l 25
 1 4 l 25
0 4 m 25
 0 6 l 25
 1 6 l 25
 1 7 l 25
 3 7 l 25
 3 6 l 25
 4 6 l 25
 4 4 l 25
 3 4 l 25
 3 3 l 25
 4 3 l 25
 4 1 l 25
 3 1 l 25
 3 0 l 25
 1 0 l 25
 1 1 l 25
 0 1 l 25
 0 3 l 25
 1 3 l 25
 1 4 l 25
 0 4 l 25
EndSplineSet
EndChar

StartChar: nine
Encoding: 57 57 57
Width: 5
Flags: HW
LayerCount: 2
Fore
SplineSet
1 4 m 25
 3 4 l 25
 3 6 l 25
 1 6 l 29
 1 4 l 25
0 4 m 25
 0 6 l 25
 1 6 l 25
 1 7 l 25
 3 7 l 25
 3 6 l 25
 4 6 l 25
 4 1 l 25
 3 1 l 25
 3 0 l 25
 1 0 l 25
 1 1 l 25
 0 1 l 25
 0 2 l 25
 1 2 l 25
 1 1 l 25
 3 1 l 25
 3 3 l 25
 1 3 l 25
 1 4 l 25
 0 4 l 25
EndSplineSet
EndChar

StartChar: colon
Encoding: 58 58 58
Width: 5
Flags: HW
LayerCount: 2
Fore
SplineSet
2 0 m 25
 2 2 l 25
 3 2 l 25
 3 0 l 25
 2 0 l 25
2 7 m 25
 3 7 l 25
 3 5 l 25
 2 5 l 25
 2 7 l 25
EndSplineSet
EndChar

StartChar: semicolon
Encoding: 59 59 59
Width: 5
Flags: HW
LayerCount: 2
Fore
SplineSet
2 7 m 25
 2 5 l 25
 3 5 l 25
 3 7 l 25
 2 7 l 25
1 0 m 25
 1 1 l 25
 2 1 l 25
 2 2 l 25
 3 2 l 25
 3 1 l 25
 2 1 l 25
 2 0 l 25
 1 0 l 25
EndSplineSet
EndChar

StartChar: less
Encoding: 60 60 60
Width: 5
Flags: HW
LayerCount: 2
Fore
SplineSet
0 3 m 25
 0 5.099609375 l 25
 1 5.099609375 l 25
 1 6 l 25
 3 6 l 25
 3 7 l 1
 5 7 l 1
 5 6 l 1
 3 6 l 1
 3 5.099609375 l 25
 1 5.099609375 l 25
 1 3 l 25
 3 3 l 25
 3 2 l 1
 5 2 l 25
 5 1 l 25
 3 1 l 1
 3 2 l 25
 1 2 l 25
 1 3 l 25
 0 3 l 25
EndSplineSet
EndChar

StartChar: equal
Encoding: 61 61 61
Width: 5
Flags: HW
LayerCount: 2
Fore
SplineSet
0 2 m 1
 5 2 l 1
 5 1 l 5
 0 1 l 1
 0 2 l 1
0 7 m 1
 5 7 l 1
 5 6 l 1
 0 6 l 1
 0 7 l 1
EndSplineSet
EndChar

StartChar: greater
Encoding: 62 62 62
Width: 5
Flags: HW
LayerCount: 2
Fore
SplineSet
5 3 m 29
 5 5.099609375 l 29
 4 5.099609375 l 1
 4 6 l 25
 2 6 l 25
 2 7 l 25
 0 7 l 25
 0 6 l 25
 2 6 l 25
 2 5.099609375 l 25
 4 5.099609375 l 25
 4 3 l 25
 2 3 l 25
 2 2 l 25
 0 2 l 25
 0 1 l 25
 2 1 l 25
 2 2 l 25
 4 2 l 25
 4 3 l 1
 5 3 l 29
EndSplineSet
EndChar

StartChar: question
Encoding: 63 63 63
Width: 5
Flags: HW
LayerCount: 2
Fore
SplineSet
2 -1 m 25
 2 1 l 25
 3 1 l 25
 3 -1 l 25
 2 -1 l 25
0 6 m 25
 0 8 l 25
 1 8 l 25
 1 9 l 1
 4 9 l 25
 4 8 l 1
 5 8 l 25
 5 6 l 25
 4 6 l 1
 4 5.099609375 l 25
 3 5.099609375 l 25
 3 3 l 25
 2 3 l 25
 2 5.099609375 l 25
 3 5.099609375 l 25
 3 6 l 25
 4 6 l 25
 4 8 l 25
 1 8 l 25
 1 6 l 25
 0 6 l 25
EndSplineSet
EndChar

StartChar: at
Encoding: 64 64 64
Width: 5
Flags: HW
LayerCount: 2
Fore
SplineSet
5 2 m 5
 5 6 l 5
 4 6 l 1
 4 7 l 1
 1 7 l 1
 1 6 l 1
 0 6 l 1
 0 1 l 1
 1 1 l 1
 1 0 l 1
 4 0 l 1
 4 1 l 1
 1 1 l 1
 1 6 l 1
 4 6 l 1
 4 5.099609375 l 1
 2 5.099609375 l 1
 2 2 l 1
 5 2 l 5
4 4 m 1
 4 3 l 1
 3 3 l 1
 3 4 l 1
 4 4 l 1
EndSplineSet
EndChar

StartChar: A
Encoding: 65 65 65
Width: 5
Flags: HW
LayerCount: 2
Fore
SplineSet
0 0 m 1
 0 6 l 1
 1 6 l 1
 1 7 l 1
 3 7 l 1
 3 6 l 1
 4 6 l 1
 4 0 l 1
 3 0 l 1
 3 3 l 1
 1 3 l 1
 1 0 l 1
 0 0 l 1
3 4 m 1
 3 6 l 1
 1 6 l 1
 1 4 l 1
 3 4 l 1
EndSplineSet
EndChar

StartChar: B
Encoding: 66 66 66
Width: 5
Flags: HW
LayerCount: 2
Fore
SplineSet
0 0 m 1
 0 7 l 1
 3 7 l 1
 3 6 l 1
 1 6 l 1
 1 4 l 1
 3 4 l 1
 3 6 l 1
 4 6 l 1
 4 4 l 1
 3 4 l 1
 3 3 l 1
 1 3 l 1
 1 1 l 1
 3 1 l 1
 3 3 l 1
 4 3 l 1
 4 1 l 1
 3 1 l 1
 3 0 l 1
 0 0 l 1
EndSplineSet
EndChar

StartChar: C
Encoding: 67 67 67
Width: 5
Flags: HW
LayerCount: 2
Fore
SplineSet
1 7 m 25
 3 7 l 25
 3 6 l 25
 4 6 l 25
 4 5.099609375 l 25
 3 5.099609375 l 25
 3 6 l 25
 1 6 l 25
 1 1 l 25
 3 1 l 25
 3 2 l 25
 4 2 l 25
 4 1 l 25
 3 1 l 25
 3 0 l 25
 1 0 l 25
 1 1 l 25
 0 1 l 25
 0 6 l 25
 1 6 l 25
 1 7 l 25
EndSplineSet
EndChar

StartChar: D
Encoding: 68 68 68
Width: 5
Flags: HW
LayerCount: 2
Fore
SplineSet
0 7 m 1
 3 7 l 1
 3 6 l 1
 1 6 l 1
 1 1 l 1
 3 1 l 1
 3 6 l 1
 4 6 l 1
 4 1 l 1
 3 1 l 1
 3 0 l 1
 0 0 l 1
 0 7 l 1
EndSplineSet
EndChar

StartChar: E
Encoding: 69 69 69
Width: 5
Flags: HW
LayerCount: 2
Fore
SplineSet
0 7 m 25
 4 7 l 25
 4 6 l 25
 1 6 l 25
 1 4 l 25
 3 4 l 25
 3 3 l 25
 1 3 l 25
 1 1 l 25
 4 1 l 25
 4 0 l 25
 0 0 l 25
 0 7 l 25
EndSplineSet
EndChar

StartChar: F
Encoding: 70 70 70
Width: 5
Flags: HW
LayerCount: 2
Fore
SplineSet
0 0 m 25
 0 7 l 25
 4 7 l 25
 4 6 l 25
 1 6 l 25
 1 4 l 25
 3 4 l 25
 3 3 l 25
 1 3 l 25
 1 0 l 25
 0 0 l 25
EndSplineSet
EndChar

StartChar: G
Encoding: 71 71 71
Width: 5
Flags: HW
LayerCount: 2
Fore
SplineSet
4 5.099609375 m 29
 4 6 l 29
 3 6 l 29
 3 7 l 29
 1 7 l 29
 1 6 l 29
 0 6 l 29
 0 1 l 29
 1 1 l 29
 1 0 l 29
 3 0 l 29
 3 1 l 29
 4 1 l 29
 4 4 l 29
 2 4 l 29
 2 3 l 29
 3 3 l 29
 3 1 l 29
 1 1 l 29
 1 6 l 29
 3 6 l 29
 3 5.099609375 l 29
 4 5.099609375 l 29
EndSplineSet
EndChar

StartChar: H
Encoding: 72 72 72
Width: 5
Flags: HW
LayerCount: 2
Fore
SplineSet
0 0 m 29
 0 7 l 29
 1 7 l 29
 1 4 l 29
 3 4 l 29
 3 7 l 29
 4 7 l 29
 4 0 l 29
 3 0 l 29
 3 3 l 29
 1 3 l 29
 1 0 l 29
 0 0 l 29
EndSplineSet
EndChar

StartChar: I
Encoding: 73 73 73
Width: 5
Flags: HW
HStem: 0 21G<1 4> 0 21G<1 4> 6 1<1 2 3 4>
VStem: 1 3<0 1 6 7>
LayerCount: 2
Fore
SplineSet
1 7 m 29x30
 4 7 l 25
 4 6 l 25
 3 6 l 25x30
 3 1 l 25
 4 1 l 25
 4 0 l 25
 1 0 l 25x90
 1 1 l 25
 2 1 l 25
 2 6 l 25
 1 6 l 25
 1 7 l 29x30
EndSplineSet
EndChar

StartChar: J
Encoding: 74 74 74
Width: 5
Flags: HW
LayerCount: 2
Fore
SplineSet
0 1 m 29
 0 2 l 29
 1 2 l 29
 1 1 l 29
 3 1 l 29
 3 7 l 29
 4 7 l 29
 4 1 l 29
 3 1 l 29
 3 0 l 29
 1 0 l 29
 1 1 l 29
 0 1 l 29
EndSplineSet
EndChar

StartChar: K
Encoding: 75 75 75
Width: 5
Flags: HW
LayerCount: 2
Fore
SplineSet
0 0 m 29
 0 7 l 29
 1 7 l 29
 1 5.099609375 l 29
 2 5.099609375 l 29
 2 6 l 29
 3 6 l 29
 3 7 l 29
 4 7 l 29
 4 6 l 29
 3 6 l 29
 3 5.099609375 l 29
 2 5.099609375 l 29
 2 4 l 29
 1 4 l 29
 1 3 l 29
 2 3 l 29
 2 2 l 29
 3 2 l 29
 3 1 l 29
 4 1 l 29
 4 0 l 29
 3 0 l 29
 3 1 l 29
 2 1 l 29
 2 2 l 29
 1 2 l 29
 1 0 l 29
 0 0 l 29
EndSplineSet
EndChar

StartChar: L
Encoding: 76 76 76
Width: 5
Flags: HW
LayerCount: 2
Fore
SplineSet
0 7 m 29
 1 7 l 29
 1 1 l 29
 4 1 l 29
 4 0 l 29
 0 0 l 29
 0 7 l 29
EndSplineSet
EndChar

StartChar: M
Encoding: 77 77 77
Width: 5
Flags: HW
LayerCount: 2
Fore
SplineSet
0 0 m 29
 0 7 l 29
 1 7 l 29
 1 6 l 29
 3 6 l 29
 3 7 l 29
 4 7 l 29
 4 0 l 29
 3 0 l 29
 3 5.099609375 l 29
 1 5.099609375 l 29
 1 0 l 29
 0 0 l 29
EndSplineSet
EndChar

StartChar: N
Encoding: 78 78 78
Width: 5
Flags: HW
LayerCount: 2
Fore
SplineSet
0 0 m 29
 0 7 l 29
 1 7 l 29
 1 6 l 29
 2 6 l 29
 2 5.099609375 l 29
 3 5.099609375 l 29
 3 7 l 29
 4 7 l 29
 4 0 l 29
 3 0 l 29
 3 4 l 29
 2 4 l 29
 2 5.099609375 l 29
 1 5.099609375 l 29
 1 0 l 29
 0 0 l 29
EndSplineSet
EndChar

StartChar: O
Encoding: 79 79 79
Width: 5
Flags: HW
HStem: 0 21G<1 3> 0 21G<1 3> 6 1<1 3>
VStem: 0 1<1 6> 1 2<0 1 6 7>
LayerCount: 2
Fore
SplineSet
1 1 m 29x30
 3 1 l 29
 3 6 l 29x28
 1 6 l 29
 1 1 l 29x30
1 0 m 29x88
 1 1 l 29
 0 1 l 29
 0 6 l 29
 1 6 l 29x30
 1 7 l 29
 3 7 l 29
 3 6 l 29
 4 6 l 29x28
 4 1 l 29
 3 1 l 29
 3 0 l 29
 1 0 l 29x88
EndSplineSet
EndChar

StartChar: P
Encoding: 80 80 80
Width: 5
Flags: HW
LayerCount: 2
Fore
SplineSet
0 0 m 5
 0 7 l 5
 3 7 l 5
 3 6 l 5
 1 6 l 5
 1 4 l 5
 3 4 l 5
 3 6 l 5
 4 6 l 5
 4 4 l 5
 3 4 l 5
 3 3 l 5
 1 3 l 5
 1 0 l 5
 0 0 l 5
EndSplineSet
EndChar

StartChar: Q
Encoding: 81 81 81
Width: 5
Flags: HW
LayerCount: 2
Fore
SplineSet
3 2 m 5
 3 6 l 5
 1 6 l 5
 1 1 l 5
 2 1 l 5
 2 2 l 5
 3 2 l 5
3 2 m 5
 3 1 l 5
 4 1 l 5
 4 0 l 5
 3 0 l 5
 3 1 l 5
 2 1 l 5
 2 0 l 5
 1 0 l 5
 1 1 l 5
 0 1 l 5
 0 6 l 5
 1 6 l 5
 1 7 l 5
 3 7 l 5
 3 6 l 5
 4 6 l 5
 4 2 l 5
 3 2 l 5
EndSplineSet
EndChar

StartChar: R
Encoding: 82 82 82
Width: 5
Flags: HW
LayerCount: 2
Fore
SplineSet
0 0 m 5
 0 7 l 5
 3 7 l 5
 3 6 l 5
 1 6 l 5
 1 4 l 5
 3 4 l 5
 3 6 l 5
 4 6 l 5
 4 4 l 5
 3 4 l 5
 3 3 l 5
 4 3 l 5
 4 0 l 5
 3 0 l 5
 3 3 l 5
 1 3 l 5
 1 0 l 5
 0 0 l 5
EndSplineSet
EndChar

StartChar: S
Encoding: 83 83 83
Width: 5
Flags: HW
LayerCount: 2
Fore
SplineSet
0 1 m 29
 1 1 l 29
 1 0 l 29
 3 0 l 29
 3 1 l 29
 4 1 l 29
 4 3 l 29
 3 3 l 29
 3 4 l 29
 1 4 l 29
 1 6 l 29
 3 6 l 29
 3 5.099609375 l 29
 4 5.099609375 l 29
 4 6 l 29
 3 6 l 29
 3 7 l 29
 1 7 l 29
 1 6 l 29
 0 6 l 29
 0 4 l 29
 1 4 l 29
 1 3 l 29
 3 3 l 29
 3 1 l 29
 1 1 l 29
 1 2 l 29
 0 2 l 29
 0 1 l 29
EndSplineSet
EndChar

StartChar: T
Encoding: 84 84 84
Width: 5
Flags: HW
LayerCount: 2
Fore
SplineSet
0 7 m 29
 3 7 l 29
 3 6 l 29
 2 6 l 29
 2 0 l 29
 1 0 l 29
 1 6 l 29
 0 6 l 29
 0 7 l 29
EndSplineSet
EndChar

StartChar: U
Encoding: 85 85 85
Width: 5
Flags: HW
LayerCount: 2
Fore
SplineSet
0 7 m 29
 1 7 l 29
 1 1 l 29
 3 1 l 29
 3 7 l 29
 4 7 l 29
 4 1 l 29
 3 1 l 29
 3 0 l 29
 1 0 l 29
 1 1 l 29
 0 1 l 29
 0 7 l 29
EndSplineSet
EndChar

StartChar: V
Encoding: 86 86 86
Width: 5
Flags: HW
LayerCount: 2
Fore
SplineSet
0 7 m 29
 1 7 l 29
 1 2 l 29
 3 2 l 29
 3 7 l 29
 4 7 l 29
 4 2 l 29
 3 2 l 29
 3 0 l 29
 1 0 l 29
 1 2 l 29
 0 2 l 29
 0 7 l 29
EndSplineSet
EndChar

StartChar: W
Encoding: 87 87 87
Width: 5
Flags: HW
LayerCount: 2
Fore
SplineSet
0 7 m 29
 1 7 l 29
 1 2 l 29
 3 2 l 29
 3 7 l 29
 4 7 l 29
 4 0 l 29
 3 0 l 29
 3 1 l 29
 1 1 l 29
 1 0 l 29
 0 0 l 29
 0 7 l 29
EndSplineSet
EndChar

StartChar: X
Encoding: 88 88 88
Width: 5
Flags: HW
LayerCount: 2
Fore
SplineSet
0 7 m 29
 1 7 l 29
 1 4 l 29
 3 4 l 29
 3 7 l 29
 4 7 l 29
 4 4 l 29
 3 4 l 29
 3 3 l 29
 4 3 l 29
 4 0 l 29
 3 0 l 29
 3 3 l 29
 1 3 l 29
 1 0 l 29
 0 0 l 29
 0 3 l 29
 1 3 l 29
 1 4 l 29
 0 4 l 29
 0 7 l 29
EndSplineSet
EndChar

StartChar: Y
Encoding: 89 89 89
Width: 5
Flags: HW
LayerCount: 2
Fore
SplineSet
0 7 m 29
 1 7 l 29
 1 4 l 29
 3 4 l 29
 3 7 l 29
 4 7 l 29
 4 1 l 29
 3 1 l 29
 3 0 l 29
 1 0 l 29
 1 1 l 29
 0 1 l 29
 0 2 l 29
 1 2 l 29
 1 1 l 29
 3 1 l 29
 3 3 l 29
 1 3 l 29
 1 4 l 29
 0 4 l 29
 0 7 l 29
EndSplineSet
EndChar

StartChar: Z
Encoding: 90 90 90
Width: 5
Flags: HW
LayerCount: 2
Fore
SplineSet
0 7 m 29
 4 7 l 29
 4 4 l 29
 3 4 l 29
 3 3 l 29
 1 3 l 29
 1 1 l 29
 4 1 l 29
 4 0 l 29
 0 0 l 29
 0 3 l 29
 1 3 l 29
 1 4 l 29
 3 4 l 29
 3 6 l 29
 0 6 l 29
 0 7 l 29
EndSplineSet
EndChar

StartChar: bracketleft
Encoding: 91 91 91
Width: 5
Flags: HW
LayerCount: 2
Fore
SplineSet
5 7 m 29
 2 7 l 1
 2 1 l 1
 5 1 l 29
 5 2 l 29
 3 2 l 1
 3 6 l 1
 5 6 l 29
 5 7 l 29
EndSplineSet
EndChar

StartChar: backslash
Encoding: 92 92 92
Width: 5
Flags: HW
LayerCount: 2
Fore
SplineSet
0 9 m 25
 1 9 l 25
 1 7 l 25
 2 7 l 25
 2 5.099609375 l 25
 3 5.099609375 l 25
 3 3 l 25
 4 3 l 25
 4 1 l 1
 5 1 l 29
 5 -1 l 29
 4 -1 l 1
 4 1 l 25
 3 1 l 25
 3 3 l 25
 2 3 l 25
 2 5.099609375 l 25
 1 5.099609375 l 25
 1 7 l 25
 0 7 l 25
 0 9 l 25
EndSplineSet
EndChar

StartChar: bracketright
Encoding: 93 93 93
Width: 5
Flags: HW
LayerCount: 2
Fore
SplineSet
0 7 m 25
 3 7 l 25
 3 1 l 25
 0 1 l 25
 0 2 l 25
 2 2 l 25
 2 6 l 25
 0 6 l 25
 0 7 l 25
EndSplineSet
EndChar

StartChar: asciicircum
Encoding: 94 94 94
Width: 5
Flags: HW
LayerCount: 2
Fore
SplineSet
0 3 m 29
 0 5 l 25
 1 5 l 25
 1 7 l 25
 2 7 l 25
 2 9 l 25
 3 9 l 25
 3 7 l 25
 4 7 l 25
 4 5 l 1
 5 5 l 25
 5 3 l 29
 4 3 l 5
 4 5 l 25
 3 5 l 25
 3 7 l 25
 2 7 l 25
 2 5 l 25
 1 5 l 25
 1 3 l 29
 0 3 l 29
EndSplineSet
EndChar

StartChar: underscore
Encoding: 95 95 95
Width: 5
Flags: HW
LayerCount: 2
Fore
SplineSet
0 -1 m 1
 0 0 l 1
 5 0 l 29
 5 -1 l 29
 0 -1 l 1
EndSplineSet
EndChar

StartChar: grave
Encoding: 96 96 96
Width: 5
Flags: HW
LayerCount: 2
Fore
SplineSet
2 7 m 5
 2 8 l 5
 1 8 l 5
 1 7 l 5
 2 7 l 5
2 7 m 5
 2 6 l 5
 3 6 l 5
 3 5 l 5
 4 5 l 5
 4 6 l 5
 3 6 l 5
 3 7 l 5
 2 7 l 5
EndSplineSet
EndChar

StartChar: a
Encoding: 97 97 97
Width: 5
Flags: HW
LayerCount: 2
Fore
SplineSet
1 1 m 29
 3 1 l 29
 3 2 l 29
 1 2 l 29
 1 1 l 29
1 0 m 29
 1 1 l 29
 0 1 l 29
 0 2 l 29
 1 2 l 29
 1 3 l 29
 3 3 l 29
 3 4 l 29
 1 4 l 29
 1 5.099609375 l 29
 3 5.099609375 l 29
 3 4 l 29
 4 4 l 29
 4 1 l 29
 3 1 l 29
 3 0 l 29
 1 0 l 29
EndSplineSet
EndChar

StartChar: b
Encoding: 98 98 98
Width: 5
Flags: HW
LayerCount: 2
Fore
SplineSet
3 1 m 29
 3 4 l 29
 1 4 l 29
 1 1 l 29
 3 1 l 29
0 1 m 29
 0 7 l 29
 1 7 l 29
 1 5.099609375 l 29
 3 5.099609375 l 29
 3 4 l 29
 4 4 l 29
 4 1 l 29
 3 1 l 29
 3 0 l 29
 1 0 l 29
 1 1 l 29
 0 1 l 29
EndSplineSet
EndChar

StartChar: c
Encoding: 99 99 99
Width: 5
Flags: HW
LayerCount: 2
Fore
SplineSet
0 1 m 29
 0 4 l 29
 1 4 l 29
 1 5.099609375 l 29
 3 5.099609375 l 29
 3 4 l 29
 4 4 l 29
 4 3 l 29
 3 3 l 29
 3 4 l 29
 1 4 l 29
 1 1 l 29
 3 1 l 29
 3 2 l 29
 4 2 l 29
 4 1 l 29
 3 1 l 29
 3 0 l 29
 1 0 l 29
 1 1 l 29
 0 1 l 29
EndSplineSet
EndChar

StartChar: d
Encoding: 100 100 100
Width: 5
Flags: HW
LayerCount: 2
Fore
SplineSet
3 1 m 29
 1 1 l 29
 1 4 l 29
 3 4 l 29
 3 1 l 29
4 1 m 29
 4 7 l 29
 3 7 l 29
 3 5.099609375 l 29
 1 5.099609375 l 29
 1 4 l 29
 0 4 l 29
 0 1 l 29
 1 1 l 29
 1 0 l 29
 3 0 l 29
 3 1 l 29
 4 1 l 29
EndSplineSet
EndChar

StartChar: e
Encoding: 101 101 101
Width: 5
Flags: HW
LayerCount: 2
Fore
SplineSet
1 4 m 29
 1 3 l 29
 3 3 l 29
 3 4 l 29
 1 4 l 29
0 1 m 29
 0 4 l 29
 1 4 l 29
 1 5.099609375 l 29
 3 5.099609375 l 29
 3 4 l 29
 4 4 l 29
 4 2 l 29
 1 2 l 29
 1 1 l 29
 3 1 l 29
 3 0 l 29
 1 0 l 29
 1 1 l 29
 0 1 l 29
EndSplineSet
EndChar

StartChar: f
Encoding: 102 102 102
Width: 5
Flags: HW
LayerCount: 2
Fore
SplineSet
0 0 m 29
 0 6 l 29
 1 6 l 29
 1 7 l 29
 3 7 l 29
 3 6 l 29
 4 6 l 29
 4 5.099609375 l 29
 3 5.099609375 l 29
 3 6 l 29
 1 6 l 29
 1 4 l 29
 3 4 l 29
 3 3 l 29
 1 3 l 29
 1 0 l 29
 0 0 l 29
EndSplineSet
EndChar

StartChar: g
Encoding: 103 103 103
Width: 5
Flags: HW
LayerCount: 2
Fore
SplineSet
1 3 m 29
 3 3 l 29
 3 4 l 29
 1 4 l 29
 1 3 l 29
0 0 m 29
 0 1 l 29
 1 1 l 29
 1 0 l 29
 3 0 l 29
 3 2 l 29
 1 2 l 29
 1 3 l 29
 0 3 l 29
 0 4 l 29
 1 4 l 29
 1 5.099609375 l 29
 3 5.099609375 l 29
 3 4 l 29
 4 4 l 29
 4 0 l 29
 3 0 l 29
 3 -1 l 29
 1 -1 l 29
 1 0 l 29
 0 0 l 29
EndSplineSet
EndChar

StartChar: h
Encoding: 104 104 104
Width: 5
Flags: HW
LayerCount: 2
Fore
SplineSet
0 0 m 29
 0 7 l 29
 1 7 l 29
 1 5.099609375 l 29
 3 5.099609375 l 29
 3 4 l 29
 4 4 l 29
 4 0 l 29
 3 0 l 29
 3 4 l 29
 1 4 l 29
 1 0 l 29
 0 0 l 29
EndSplineSet
EndChar

StartChar: i
Encoding: 105 105 105
Width: 5
Flags: HW
LayerCount: 2
Fore
SplineSet
2 6 m 25
 2 7 l 25
 3 7 l 25
 3 6 l 25
 2 6 l 25
2 0 m 29
 2 5.099609375 l 29
 3 5.099609375 l 29
 3 0 l 29
 2 0 l 29
EndSplineSet
EndChar

StartChar: j
Encoding: 106 106 106
Width: 5
Flags: HW
LayerCount: 2
Fore
SplineSet
3 5.099609375 m 5
 4 5.099609375 l 5
 4 0 l 5
 3 0 l 5
 3 -1 l 5
 1 -1 l 5
 1 0 l 5
 0 0 l 5
 0 1 l 5
 1 1 l 5
 1 0 l 5
 3 0 l 5
 3 5.099609375 l 5
4 7 m 5
 3 7 l 5
 3 6 l 5
 4 6 l 5
 4 7 l 5
EndSplineSet
EndChar

StartChar: k
Encoding: 107 107 107
Width: 5
Flags: HW
LayerCount: 2
Fore
SplineSet
0 0 m 29
 0 7 l 29
 1 7 l 29
 1 3 l 29
 2 3 l 29
 2 4 l 29
 3 4 l 29
 3 5.099609375 l 29
 4 5.099609375 l 29
 4 4 l 29
 3 4 l 29
 3 3 l 29
 2 3 l 29
 2 2 l 29
 3 2 l 29
 3 1 l 29
 4 1 l 29
 4 0 l 29
 3 0 l 29
 3 1 l 29
 2 1 l 29
 2 2 l 29
 1 2 l 29
 1 0 l 29
 0 0 l 29
EndSplineSet
EndChar

StartChar: l
Encoding: 108 108 108
Width: 5
Flags: HW
LayerCount: 2
Fore
SplineSet
2 0 m 29
 2 7 l 29
 3 7 l 29
 3 0 l 29
 2 0 l 29
EndSplineSet
EndChar

StartChar: m
Encoding: 109 109 109
Width: 5
Flags: HW
LayerCount: 2
Fore
SplineSet
0 0 m 29
 0 5.099609375 l 29
 1 5.099609375 l 29
 1 4 l 29
 3 4 l 29
 3 5.099609375 l 29
 4 5.099609375 l 29
 4 0 l 29
 3 0 l 29
 3 3 l 29
 1 3 l 29
 1 0 l 29
 0 0 l 29
EndSplineSet
EndChar

StartChar: n
Encoding: 110 110 110
Width: 5
Flags: HW
LayerCount: 2
Fore
SplineSet
0 4 m 29
 1 4 l 29
 1 5.099609375 l 29
 3 5.099609375 l 29
 3 4 l 29
 4 4 l 29
 4 0 l 29
 3 0 l 29
 3 4 l 29
 1 4 l 29
 1 0 l 29
 0 0 l 29
 0 4 l 29
EndSplineSet
EndChar

StartChar: o
Encoding: 111 111 111
Width: 5
Flags: HW
HStem: 0 21G<1 3> 0 21G<1 3> 1 3<0 1 3 4>
VStem: 0 1<1 4> 1 2<0 1 4 5.09961>
LayerCount: 2
Fore
SplineSet
1 1 m 29x30
 3 1 l 29
 3 4 l 29x28
 1 4 l 29
 1 1 l 29x30
1 0 m 29x88
 1 1 l 29
 0 1 l 29
 0 4 l 29
 1 4 l 29x30
 1 5.099609375 l 29
 3 5.099609375 l 29
 3 4 l 29
 4 4 l 29
 4 1 l 29
 3 1 l 29x28
 3 0 l 29
 1 0 l 29x88
EndSplineSet
EndChar

StartChar: p
Encoding: 112 112 112
Width: 5
Flags: HW
LayerCount: 2
Fore
SplineSet
3 2 m 29
 3 4 l 29
 1 4 l 29
 1 2 l 29
 3 2 l 29
0 -1 m 29
 0 4 l 29
 1 4 l 29
 1 5.099609375 l 29
 3 5.099609375 l 29
 3 4 l 29
 4 4 l 29
 4 2 l 29
 3 2 l 29
 3 1 l 29
 1 1 l 29
 1 -1 l 29
 0 -1 l 29
EndSplineSet
EndChar

StartChar: q
Encoding: 113 113 113
Width: 5
Flags: HW
LayerCount: 2
Fore
SplineSet
1 2 m 29
 1 4 l 29
 3 4 l 29
 3 2 l 29
 1 2 l 29
4 -1 m 29
 4 4 l 29
 3 4 l 29
 3 5.099609375 l 29
 1 5.099609375 l 29
 1 4 l 29
 0 4 l 29
 0 2 l 29
 1 2 l 29
 1 1 l 29
 3 1 l 29
 3 -1 l 29
 4 -1 l 29
EndSplineSet
EndChar

StartChar: r
Encoding: 114 114 114
Width: 5
Flags: HW
LayerCount: 2
Fore
SplineSet
0 0 m 29
 0 4 l 29
 1 4 l 29
 1 5.099609375 l 29
 3 5.099609375 l 29
 3 4 l 29
 4 4 l 29
 4 3 l 29
 3 3 l 29
 3 4 l 29
 1 4 l 29
 1 0 l 29
 0 0 l 29
EndSplineSet
EndChar

StartChar: s
Encoding: 115 115 115
Width: 5
Flags: HW
LayerCount: 2
Fore
SplineSet
0 0 m 29
 0 1 l 29
 3 1 l 29
 3 2 l 29
 1 2 l 29
 1 3 l 29
 0 3 l 29
 0 4 l 29
 1 4 l 29
 1 5.099609375 l 29
 4 5.099609375 l 29
 4 4 l 29
 1 4 l 29
 1 3 l 29
 3 3 l 29
 3 2 l 29
 4 2 l 29
 4 1 l 29
 3 1 l 29
 3 0 l 29
 0 0 l 29
EndSplineSet
EndChar

StartChar: t
Encoding: 116 116 116
Width: 5
Flags: HW
LayerCount: 2
Fore
SplineSet
0 7 m 29
 1 7 l 29
 1 5.099609375 l 29
 3 5.099609375 l 29
 3 4 l 29
 1 4 l 29
 1 1 l 29
 3 1 l 29
 3 2 l 29
 4 2 l 29
 4 1 l 29
 3 1 l 29
 3 0 l 29
 1 0 l 29
 1 1 l 29
 0 1 l 29
 0 7 l 29
EndSplineSet
EndChar

StartChar: u
Encoding: 117 117 117
Width: 5
Flags: HW
LayerCount: 2
Fore
SplineSet
0 5.099609375 m 29
 1 5.099609375 l 29
 1 1 l 29
 3 1 l 29
 3 5.099609375 l 29
 4 5.099609375 l 29
 4 1 l 29
 3 1 l 29
 3 0 l 29
 1 0 l 29
 1 1 l 29
 0 1 l 29
 0 5.099609375 l 29
EndSplineSet
EndChar

StartChar: v
Encoding: 118 118 118
Width: 5
Flags: HW
LayerCount: 2
Fore
SplineSet
0 5.099609375 m 29
 1 5.099609375 l 29
 1 2 l 29
 3 2 l 29
 3 5.099609375 l 29
 4 5.099609375 l 29
 4 2 l 29
 3 2 l 29
 3 0 l 29
 1 0 l 29
 1 2 l 29
 0 2 l 29
 0 5.099609375 l 29
EndSplineSet
EndChar

StartChar: w
Encoding: 119 119 119
Width: 5
Flags: HW
LayerCount: 2
Fore
SplineSet
0 5.099609375 m 29
 1 5.099609375 l 29
 1 2 l 29
 3 2 l 29
 3 5.099609375 l 29
 4 5.099609375 l 29
 4 0 l 29
 3 0 l 29
 3 1 l 29
 1 1 l 29
 1 0 l 29
 0 0 l 29
 0 5.099609375 l 29
EndSplineSet
EndChar

StartChar: x
Encoding: 120 120 120
Width: 5
Flags: HW
HStem: 0 2<0 1 3 4> 3 2.09961<0 1 3 4>
VStem: 0 1<0 2 3 5.09961> 3 1<0 2 3 5.09961>
LayerCount: 2
Fore
SplineSet
0 0 m 29
 0 2 l 29
 1 2 l 29
 1 3 l 29
 0 3 l 29
 0 5.099609375 l 29
 1 5.099609375 l 29
 1 3 l 29
 3 3 l 29
 3 5.099609375 l 29
 4 5.099609375 l 29
 4 3 l 29
 3 3 l 29
 3 2 l 29
 4 2 l 29
 4 0 l 29
 3 0 l 29
 3 2 l 29
 1 2 l 29
 1 0 l 29
 0 0 l 29
EndSplineSet
EndChar

StartChar: y
Encoding: 121 121 121
Width: 5
Flags: HW
LayerCount: 2
Fore
SplineSet
0 5.099609375 m 29
 1 5.099609375 l 29
 1 3 l 29
 3 3 l 29
 3 5.099609375 l 29
 4 5.099609375 l 29
 4 0 l 29
 3 0 l 29
 3 -1 l 29
 1 -1 l 29
 1 0 l 29
 0 0 l 29
 0 1 l 29
 1 1 l 29
 1 0 l 29
 3 0 l 29
 3 2 l 29
 1 2 l 29
 1 3 l 29
 0 3 l 29
 0 5.099609375 l 29
EndSplineSet
EndChar

StartChar: z
Encoding: 122 122 122
Width: 5
Flags: HW
LayerCount: 2
Fore
SplineSet
0 5.099609375 m 29
 4 5.099609375 l 29
 4 3 l 29
 3 3 l 29
 3 2 l 29
 1 2 l 29
 1 1 l 29
 4 1 l 29
 4 0 l 29
 0 0 l 29
 0 2 l 29
 1 2 l 29
 1 3 l 29
 3 3 l 29
 3 4 l 29
 0 4 l 29
 0 5.099609375 l 29
EndSplineSet
EndChar

StartChar: braceleft
Encoding: 123 123 123
Width: 5
Flags: HW
LayerCount: 2
Fore
SplineSet
5 9 m 29
 4 9 l 1
 4 8 l 25
 3 8 l 25
 3 6 l 25
 1 6 l 25
 1 5.099609375 l 25
 0 5.099609375 l 25
 0 3 l 25
 1 3 l 25
 1 2 l 25
 3 2 l 25
 3 0 l 25
 4 0 l 25
 4 -1 l 1
 5 -1 l 29
 5 0 l 29
 4 0 l 1
 4 2 l 25
 3 2 l 25
 3 3 l 25
 1 3 l 25
 1 5.099609375 l 25
 3 5.099609375 l 25
 3 6 l 25
 4 6 l 25
 4 8 l 1
 5 8 l 29
 5 9 l 29
EndSplineSet
EndChar

StartChar: bar
Encoding: 124 124 124
Width: 5
Flags: HW
LayerCount: 2
Fore
SplineSet
2 9 m 1
 3 9 l 1
 3 -1 l 5
 2 -1 l 1
 2 9 l 1
EndSplineSet
EndChar

StartChar: braceright
Encoding: 125 125 125
Width: 5
Flags: HW
LayerCount: 2
Fore
SplineSet
0 9 m 25
 1 9 l 25
 1 8 l 1
 1 6 l 1
 2 6 l 1
 4 6 l 1
 4 5.099609375 l 1
 5 5.099609375 l 29
 5 3 l 29
 4 3 l 1
 4 2 l 1
 2 2 l 1
 2 0 l 1
 1 0 l 1
 1 -1 l 25
 0 -1 l 25
 0 0 l 25
 1 0 l 1
 1 2 l 1
 2 2 l 1
 2 3 l 1
 4 3 l 1
 4 5.099609375 l 1
 2 5.099609375 l 1
 2 6 l 1
 2 8 l 1
 1 8 l 1
 0 8 l 25
 0 9 l 25
EndSplineSet
EndChar

StartChar: asciitilde
Encoding: 126 126 126
Width: 5
Flags: HW
LayerCount: 2
Fore
SplineSet
0 5 m 29
 0 7 l 29
 1 7 l 29
 1 8 l 29
 3 8 l 29
 3 7 l 29
 4 7 l 29
 4 8 l 5
 5 8 l 29
 5 7 l 29
 4 7 l 5
 4 5 l 29
 3 5 l 29
 3 7 l 29
 1 7 l 29
 1 5 l 29
 0 5 l 29
EndSplineSet
EndChar

StartChar: exclamdown
Encoding: 161 161 161
Width: 5
Flags: HW
LayerCount: 2
Fore
SplineSet
2 5.099609375 m 29
 3 5.099609375 l 25
 3 -1 l 25
 2 -1 l 25
 2 5.099609375 l 29
2 9 m 25
 2 7 l 25
 3 7 l 25
 3 9 l 25
 2 9 l 25
EndSplineSet
EndChar

StartChar: cent
Encoding: 162 162 162
Width: 5
Flags: HW
LayerCount: 2
Fore
SplineSet
2 9 m 1
 3 9 l 1
 3 7 l 1
 4 7 l 1
 4 6 l 1
 5 6 l 5
 5 5.099609375 l 5
 4 5.099609375 l 1
 4 6 l 1
 3 6 l 1
 3 2 l 1
 4 2 l 1
 4 3 l 1
 5 3 l 5
 5 2 l 5
 4 2 l 1
 4 1 l 1
 3 1 l 1
 3 -1 l 1
 2 -1 l 1
 2 1 l 1
 1 1 l 1
 1 2 l 1
 2 2 l 1
 2 6 l 1
 1 6 l 1
 1 2 l 1
 0 2 l 1
 0 6 l 1
 1 6 l 1
 1 7 l 1
 2 7 l 1
 2 9 l 1
EndSplineSet
EndChar

StartChar: sterling
Encoding: 163 163 163
Width: 5
Flags: HW
LayerCount: 2
Fore
SplineSet
5 0 m 29
 5 1 l 29
 1 1 l 1
 1 3 l 25
 3 3 l 25
 3 4 l 25
 1 4 l 25
 1 6 l 25
 4 6 l 25
 4 5.099609375 l 1
 5 5.099609375 l 29
 5 6 l 29
 4 6 l 1
 4 7 l 25
 1 7 l 25
 1 6 l 25
 0 6 l 25
 0 0 l 1
 5 0 l 29
EndSplineSet
EndChar

StartChar: currency
Encoding: 164 164 164
Width: 5
Flags: HW
LayerCount: 2
Fore
SplineSet
0 7 m 1
 1 7 l 1
 1 6 l 1
 2 6 l 1
 2 5.099609375 l 1
 1 5.099609375 l 1
 1 4 l 1
 2 4 l 1
 2 3 l 1
 3 3 l 1
 3 4 l 1
 4 4 l 1
 4 5.099609375 l 1
 3 5.099609375 l 1
 3 6 l 1
 2 6 l 1
 2 7 l 1
 3 7 l 1
 3 6 l 1
 4 6 l 1
 4 7 l 1
 5 7 l 5
 5 6 l 5
 4 6 l 1
 4 5.099609375 l 1
 5 5.099609375 l 5
 5 4 l 5
 4 4 l 1
 4 3 l 1
 5 3 l 5
 5 2 l 5
 4 2 l 1
 4 3 l 1
 3 3 l 1
 3 2 l 1
 2 2 l 1
 2 3 l 1
 1 3 l 1
 1 2 l 1
 0 2 l 1
 0 3 l 1
 1 3 l 1
 1 4 l 1
 0 4 l 1
 0 5.099609375 l 1
 1 5.099609375 l 1
 1 6 l 1
 0 6 l 1
 0 7 l 1
EndSplineSet
EndChar

StartChar: yen
Encoding: 165 165 165
Width: 5
Flags: HW
LayerCount: 2
Fore
SplineSet
0 9 m 25
 1 9 l 25
 1 7 l 25
 2 7 l 25
 2 5.099609375 l 25
 3 5.099609375 l 25
 3 7 l 25
 4 7 l 25
 4 9 l 1
 5 9 l 29
 5 7 l 29
 4 7 l 1
 4 5.099609375 l 25
 3 5.099609375 l 25
 3 4 l 1
 5 4 l 29
 5 3 l 29
 3 3 l 1
 3 2 l 1
 5 2 l 29
 5 1 l 29
 3 1 l 1
 3 -1 l 25
 2 -1 l 25
 2 1 l 25
 0 1 l 25
 0 2 l 25
 2 2 l 25
 2 3 l 25
 0 3 l 25
 0 4 l 25
 2 4 l 25
 2 5.099609375 l 25
 1 5.099609375 l 25
 1 7 l 25
 0 7 l 25
 0 9 l 25
EndSplineSet
EndChar

StartChar: brokenbar
Encoding: 166 166 166
Width: 5
Flags: HW
LayerCount: 2
Fore
SplineSet
2 -1 m 29
 2 2 l 25
 3 2 l 25
 3 -1 l 25
 2 -1 l 29
2 9 m 25
 2 6 l 25
 3 6 l 25
 3 9 l 25
 2 9 l 25
EndSplineSet
EndChar

StartChar: section
Encoding: 167 167 167
Width: 5
Flags: HW
LayerCount: 2
Fore
SplineSet
5 7 m 5
 5 8 l 5
 4 8 l 1
 4 9 l 1
 1 9 l 1
 1 8 l 1
 0 8 l 1
 0 6 l 1
 1 6 l 1
 1 5.099609375 l 1
 4 5.099609375 l 1
 4 3 l 1
 1 3 l 1
 1 5.099609375 l 1
 0 5.099609375 l 1
 0 3 l 1
 1 3 l 1
 1 2 l 1
 4 2 l 1
 4 0 l 1
 1 0 l 1
 1 1 l 1
 0 1 l 1
 0 0 l 1
 1 0 l 1
 1 -1 l 1
 4 -1 l 1
 4 0 l 1
 5 0 l 5
 5 2 l 5
 4 2 l 1
 4 3 l 1
 5 3 l 5
 5 5.099609375 l 5
 4 5.099609375 l 1
 4 6 l 1
 1 6 l 1
 1 8 l 1
 4 8 l 1
 4 7 l 1
 5 7 l 5
EndSplineSet
EndChar

StartChar: dieresis
Encoding: 168 168 168
Width: 5
Flags: HW
LayerCount: 2
Fore
SplineSet
4 9 m 29
 3 9 l 25
 3 7 l 25
 4 7 l 25
 4 9 l 29
1 9 m 25
 1 7 l 25
 2 7 l 25
 2 9 l 25
 1 9 l 25
EndSplineSet
EndChar

StartChar: copyright
Encoding: 169 169 169
Width: 5
Flags: HW
LayerCount: 2
Fore
SplineSet
4 6 m 25
 3 6 l 25
 3 7 l 25
 2 7 l 25
 2 6 l 25
 1 6 l 25
 1 2 l 25
 2 2 l 25
 2 1 l 25
 3 1 l 25
 3 2 l 25
 4 2 l 25
 4 3 l 25
 3 3 l 25
 3 2 l 25
 2 2 l 25
 2 6 l 25
 3 6 l 25
 3 5.099609375 l 25
 4 5.099609375 l 25
 4 6 l 25
0 1 m 25
 1 1 l 25
 1 0 l 25
 4 0 l 25
 4 1 l 1
 5 1 l 29
 5 0 l 29
 4 0 l 1
 4 -1 l 25
 1 -1 l 25
 1 0 l 25
 0 0 l 25
 0 1 l 25
0 7 m 25
 0 8 l 25
 1 8 l 25
 1 9 l 25
 4 9 l 25
 4 8 l 1
 5 8 l 29
 5 7 l 29
 4 7 l 1
 4 8 l 25
 1 8 l 25
 1 7 l 25
 0 7 l 25
EndSplineSet
EndChar

StartChar: ordfeminine
Encoding: 170 170 170
Width: 5
Flags: HW
LayerCount: 2
Fore
SplineSet
1 8 m 1
 1 9 l 1
 3 9 l 1
 3 8 l 1
 4 8 l 1
 4 5.099609375 l 1
 3 5.099609375 l 1
 3 6 l 1
 1 6 l 1
 1 5.099609375 l 1
 3 5.099609375 l 1
 3 4 l 1
 1 4 l 1
 1 5.099609375 l 1
 0 5.099609375 l 1
 0 6 l 1
 1 6 l 1
 1 7 l 1
 3 7 l 1
 3 8 l 1
 1 8 l 1
0 3 m 1
 4 3 l 1
 4 2 l 1
 0 2 l 1
 0 3 l 1
EndSplineSet
EndChar

StartChar: guillemotleft
Encoding: 171 171 171
Width: 5
Flags: HW
LayerCount: 2
Fore
SplineSet
5 9 m 1
 4 9 l 1
 4 7 l 1
 3 7 l 1
 3 5.099609375 l 1
 2 5.099609375 l 1
 2 3 l 1
 3 3 l 1
 3 1 l 1
 4 1 l 1
 4 -1 l 1
 5 -1 l 5
 5 1 l 5
 4 1 l 1
 4 3 l 1
 3 3 l 1
 3 5.099609375 l 1
 4 5.099609375 l 1
 4 7 l 1
 5 7 l 1
 5 9 l 1
3 1 m 1
 3 -1 l 1
 2 -1 l 1
 2 1 l 1
 3 1 l 1
2 1 m 1
 1 1 l 1
 1 3 l 1
 2 3 l 1
 2 1 l 1
1 3 m 1
 0 3 l 1
 0 5.099609375 l 1
 1 5.099609375 l 1
 1 3 l 1
1 5.099609375 m 1
 1 7 l 1
 2 7 l 1
 2 5.099609375 l 1
 1 5.099609375 l 1
3 7 m 1
 2 7 l 1
 2 9 l 1
 3 9 l 1
 3 7 l 1
EndSplineSet
EndChar

StartChar: logicalnot
Encoding: 172 172 172
Width: 5
Flags: HW
LayerCount: 2
Fore
SplineSet
0 4 m 1
 5 4 l 1
 5 -1 l 5
 4 -1 l 1
 4 3 l 25
 0 3 l 25
 0 4 l 1
EndSplineSet
EndChar

StartChar: uni00AD
Encoding: 173 173 173
Width: 5
Flags: HW
LayerCount: 2
Fore
SplineSet
1 4 m 29
 1 3 l 29
 4 3 l 29
 4 4 l 29
 1 4 l 29
EndSplineSet
EndChar

StartChar: registered
Encoding: 174 174 174
Width: 5
Flags: HW
LayerCount: 2
Fore
SplineSet
0 7 m 1
 0 8 l 1
 1 8 l 1
 1 9 l 1
 4 9 l 1
 4 8 l 1
 5 8 l 1
 5 7 l 1
 4 7 l 1
 4 8 l 1
 1 8 l 1
 1 7 l 1
 3 7 l 1
 3 6 l 1
 2 6 l 1
 2 4 l 1
 3 4 l 1
 3 6 l 1
 4 6 l 1
 4 4 l 1
 3 4 l 1
 3 3 l 1
 4 3 l 1
 4 1 l 1
 3 1 l 1
 3 3 l 1
 2 3 l 1
 2 1 l 1
 1 1 l 1
 1 7 l 1
 0 7 l 1
4 1 m 1
 5 1 l 1
 5 0 l 1
 4 0 l 1
 4 1 l 1
4 0 m 1
 4 -1 l 1
 1 -1 l 1
 1 0 l 1
 4 0 l 1
1 1 m 1
 1 0 l 1
 0 0 l 1
 0 1 l 1
 1 1 l 1
EndSplineSet
EndChar

StartChar: macron
Encoding: 175 175 175
Width: 5
Flags: HW
LayerCount: 2
Fore
SplineSet
0 9 m 1
 5 9 l 29
 5 8 l 29
 0 8 l 1
 0 9 l 1
EndSplineSet
EndChar

StartChar: degree
Encoding: 176 176 176
Width: 5
Flags: HW
LayerCount: 2
Fore
SplineSet
2 8 m 5
 3 8 l 5
 3 7 l 5
 2 7 l 5
 2 6 l 5
 3 6 l 5
 3 7 l 5
 4 7 l 5
 4 6 l 5
 3 6 l 5
 3 5.099609375 l 5
 2 5.099609375 l 5
 2 6 l 5
 1 6 l 5
 1 7 l 5
 2 7 l 5
 2 8 l 5
EndSplineSet
EndChar

StartChar: plusminus
Encoding: 177 177 177
Width: 5
Flags: HW
LayerCount: 2
Fore
SplineSet
0 2 m 1
 5 2 l 29
 5 1 l 29
 0 1 l 1
 0 2 l 1
0 6 m 25
 0 7 l 25
 2 7 l 25
 2 9 l 25
 3 9 l 25
 3 7 l 1
 5 7 l 29
 5 6 l 29
 3 6 l 1
 3 4 l 25
 2 4 l 25
 2 6 l 25
 0 6 l 25
EndSplineSet
EndChar

StartChar: uni00B2
Encoding: 178 178 178
Width: 5
Flags: HW
LayerCount: 2
Fore
SplineSet
1 8 m 29
 3 8 l 29
 3 6 l 29
 2 6 l 29
 2 5.099609375 l 29
 3 5.099609375 l 29
 3 4 l 29
 1 4 l 29
 1 6 l 29
 2 6 l 29
 2 7 l 29
 1 7 l 29
 1 8 l 29
EndSplineSet
EndChar

StartChar: uni00B3
Encoding: 179 179 179
Width: 5
Flags: HW
LayerCount: 2
Fore
SplineSet
1 8 m 29
 3 8 l 29
 3 3 l 29
 1 3 l 29
 1 4 l 29
 2 4 l 29
 2 5.099609375 l 29
 1 5.099609375 l 29
 1 6 l 29
 2 6 l 29
 2 7 l 29
 1 7 l 29
 1 8 l 29
EndSplineSet
EndChar

StartChar: acute
Encoding: 180 180 180
Width: 5
Flags: HW
LayerCount: 2
Fore
SplineSet
1 6 m 1
 1 7 l 1
 2 7 l 1
 2 8 l 1
 3 8 l 1
 3 9 l 1
 4 9 l 1
 4 8 l 1
 3 8 l 1
 3 7 l 1
 2 7 l 1
 2 6 l 1
 1 6 l 1
EndSplineSet
EndChar

StartChar: mu
Encoding: 181 181 181
Width: 5
Flags: HW
LayerCount: 2
Fore
SplineSet
0 1 m 1049
0 5.099609375 m 25
 1 5.099609375 l 1
 1 1 l 1
 3 1 l 1
 3 5.099609375 l 1
 4 5.099609375 l 29
 4 1 l 5
 4 0 l 5
 1 0 l 1
 1 -1 l 1
 0 -1 l 1
 0 1 l 1
 0 5.099609375 l 25
EndSplineSet
EndChar

StartChar: paragraph
Encoding: 182 182 182
Width: 5
Flags: HW
LayerCount: 2
Fore
SplineSet
5 -1 m 29
 5 9 l 29
 2 9 l 1
 2 8 l 25
 1 8 l 25
 1 7 l 25
 0 7 l 25
 0 4 l 25
 1 4 l 25
 1 3 l 25
 2 3 l 25
 2 -1 l 25
 3 -1 l 25
 3 8 l 25
 4 8 l 25
 4 -1 l 1
 5 -1 l 29
EndSplineSet
EndChar

StartChar: periodcentered
Encoding: 183 183 183
Width: 5
Flags: HW
LayerCount: 2
Fore
SplineSet
2 5 m 29
 3 5 l 29
 3 3 l 29
 2 3 l 29
 2 5 l 29
EndSplineSet
EndChar

StartChar: cedilla
Encoding: 184 184 184
Width: 5
Flags: HW
LayerCount: 2
Fore
SplineSet
3 -1 m 29
 3 0 l 5
 4 0 l 5
 4 1 l 5
 3 1 l 5
 3 2 l 29
 2 2 l 29
 2 1 l 29
 3 1 l 29
 3 0 l 29
 2 0 l 29
 2 -1 l 29
 3 -1 l 29
EndSplineSet
EndChar

StartChar: uni00B9
Encoding: 185 185 185
Width: 5
Flags: HW
LayerCount: 2
Fore
SplineSet
3 8 m 29
 3 4 l 25
 2 4 l 25
 2 6 l 25
 1 6 l 25
 1 7 l 25
 2 7 l 25
 2 8 l 25
 3 8 l 29
EndSplineSet
EndChar

StartChar: ordmasculine
Encoding: 186 186 186
Width: 5
Flags: HW
LayerCount: 2
Fore
SplineSet
1 4 m 29
 4 4 l 25
 4 3 l 25
 1 3 l 25
 1 4 l 29
2 8 m 1
 3 8 l 1
 3 7 l 1
 2 7 l 1
 2 6 l 1
 3 6 l 1
 3 7 l 1
 4 7 l 1
 4 6 l 1
 3 6 l 1
 3 5.099609375 l 1
 2 5.099609375 l 1
 2 6 l 1
 1 6 l 1
 1 7 l 1
 2 7 l 1
 2 8 l 1
EndSplineSet
EndChar

StartChar: guillemotright
Encoding: 187 187 187
Width: 5
Flags: HW
LayerCount: 2
Fore
SplineSet
2 9 m 25
 3 9 l 25
 3 7 l 25
 4 7 l 25
 4 5.099609375 l 1
 5 5.099609375 l 29
 5 3 l 29
 4 3 l 1
 4 1 l 25
 3 1 l 25
 3 -1 l 25
 2 -1 l 25
 2 1 l 25
 3 1 l 25
 3 3 l 25
 4 3 l 25
 4 5.099609375 l 25
 3 5.099609375 l 25
 3 7 l 25
 2 7 l 25
 2 9 l 25
0 9 m 25
 1 9 l 25
 1 7 l 25
 2 7 l 25
 2 5.099609375 l 25
 3 5.099609375 l 25
 3 3 l 25
 2 3 l 25
 2 1 l 25
 1 1 l 25
 1 -1 l 25
 0 -1 l 25
 0 1 l 25
 1 1 l 25
 1 3 l 25
 2 3 l 25
 2 5.099609375 l 25
 1 5.099609375 l 25
 1 7 l 25
 0 7 l 25
 0 9 l 25
EndSplineSet
EndChar

StartChar: onequarter
Encoding: 188 188 188
Width: 5
Flags: HW
LayerCount: 2
Fore
SplineSet
2 0 m 25
 2 1 l 25
 3 1 l 25
 3 2 l 25
 4 2 l 25
 4 3 l 1
 5 3 l 29
 5 -1 l 29
 4 -1 l 1
 4 0 l 25
 2 0 l 25
2 5.099609375 m 25
 2 9 l 25
 1 9 l 25
 1 8 l 25
 0 8 l 25
 0 7 l 25
 1 7 l 25
 1 5.099609375 l 25
 2 5.099609375 l 25
0 -1 m 25
 0 1 l 25
 1 1 l 25
 1 3 l 25
 2 3 l 25
 2 5.099609375 l 25
 3 5.099609375 l 25
 3 7 l 25
 4 7 l 25
 4 9 l 1
 5 9 l 29
 5 7 l 29
 4 7 l 1
 4 5.099609375 l 25
 3 5.099609375 l 25
 3 3 l 25
 2 3 l 25
 2 1 l 25
 1 1 l 25
 1 -1 l 25
 0 -1 l 25
EndSplineSet
EndChar

StartChar: onehalf
Encoding: 189 189 189
Width: 5
Flags: HW
LayerCount: 2
Fore
SplineSet
0 7 m 1
 0 8 l 1
 1 8 l 1
 1 9 l 1
 2 9 l 1
 2 5.099609375 l 1
 1 5.099609375 l 1
 1 7 l 1
 0 7 l 1
0 -1 m 1
 0 1 l 1
 1 1 l 1
 1 3 l 1
 2 3 l 1
 2 5.099609375 l 1
 3 5.099609375 l 1
 3 7 l 1
 4 7 l 1
 4 9 l 1
 5 9 l 1
 5 7 l 1
 4 7 l 1
 4 5.099609375 l 1
 3 5.099609375 l 1
 3 3 l 1
 5 3 l 1
 5 1 l 1
 4 1 l 1
 4 2 l 1
 3 2 l 1
 3 3 l 1
 2 3 l 1
 2 1 l 1
 1 1 l 1
 1 -1 l 1
 0 -1 l 1
4 1 m 1
 3 1 l 1
 3 -1 l 1
 5 -1 l 1
 5 0 l 1
 4 0 l 1
 4 1 l 1
EndSplineSet
EndChar

StartChar: threequarters
Encoding: 190 190 190
Width: 5
Flags: HW
LayerCount: 2
Fore
SplineSet
0 9 m 1
 2 9 l 1
 2 5.099609375 l 1
 3 5.099609375 l 1
 3 7 l 1
 4 7 l 1
 4 9 l 1
 5 9 l 1
 5 7 l 1
 4 7 l 1
 4 5.099609375 l 1
 3 5.099609375 l 1
 3 3 l 1
 2 3 l 1
 2 1 l 1
 3 1 l 1
 3 2 l 1
 4 2 l 1
 4 3 l 1
 5 3 l 1
 5 -1 l 1
 4 -1 l 1
 4 0 l 1
 2 0 l 1
 2 1 l 1
 1 1 l 1
 1 -1 l 1
 0 -1 l 1
 0 1 l 1
 1 1 l 1
 1 3 l 1
 2 3 l 1
 2 4 l 1
 0 4 l 1
 0 5.099609375 l 1
 1 5.099609375 l 1
 1 6 l 1
 0 6 l 1
 0 7 l 1
 1 7 l 1
 1 8 l 1
 0 8 l 1
 0 9 l 1
EndSplineSet
EndChar

StartChar: questiondown
Encoding: 191 191 191
Width: 5
Flags: HW
LayerCount: 2
Fore
SplineSet
2 5.099609375 m 25
 3 5.099609375 l 25
 3 3 l 25
 2 3 l 25
 2 2 l 25
 1 2 l 25
 1 0 l 25
 4 0 l 25
 4 2 l 1
 5 2 l 29
 5 0 l 29
 4 0 l 1
 4 -1 l 25
 1 -1 l 25
 1 0 l 25
 0 0 l 25
 0 2 l 25
 1 2 l 25
 1 3 l 25
 2 3 l 25
 2 5.099609375 l 25
2 9 m 25
 2 7 l 25
 3 7 l 25
 3 9 l 25
 2 9 l 25
EndSplineSet
EndChar

StartChar: Agrave
Encoding: 192 192 192
Width: 5
Flags: HW
LayerCount: 2
Fore
SplineSet
1 9 m 29
 1 8 l 29
 2 8 l 29
 2 7 l 29
 3 7 l 29
 3 8 l 29
 2 8 l 29
 2 9 l 29
 1 9 l 29
0 0 m 5
 0 5.099609375 l 5
 1 5.099609375 l 5
 1 6 l 5
 3 6 l 5
 3 5.099609375 l 5
 4 5.099609375 l 5
 4 0 l 5
 3 0 l 5
 3 2 l 5
 1 2 l 5
 1 0 l 5
 0 0 l 5
3 3 m 5
 3 5.099609375 l 5
 1 5.099609375 l 5
 1 3 l 5
 3 3 l 5
EndSplineSet
EndChar

StartChar: Aacute
Encoding: 193 193 193
Width: 5
Flags: HW
LayerCount: 2
Fore
SplineSet
1 7 m 29
 1 8 l 25
 2 8 l 25
 2 9 l 25
 3 9 l 25
 3 8 l 25
 2 8 l 25
 2 7 l 25
 1 7 l 29
0 0 m 1
 0 5.099609375 l 1
 1 5.099609375 l 1
 1 6 l 1
 3 6 l 1
 3 5.099609375 l 1
 4 5.099609375 l 1
 4 0 l 1
 3 0 l 1
 3 2 l 1
 1 2 l 1
 1 0 l 1
 0 0 l 1
3 3 m 1
 3 5.099609375 l 1
 1 5.099609375 l 1
 1 3 l 1
 3 3 l 1
EndSplineSet
EndChar

StartChar: Acircumflex
Encoding: 194 194 194
Width: 5
Flags: HW
LayerCount: 2
Fore
SplineSet
0 7 m 29
 0 8 l 25
 1 8 l 25
 1 9 l 25
 3 9 l 25
 3 8 l 25
 4 8 l 25
 4 7 l 25
 3 7 l 25
 3 8 l 25
 1 8 l 25
 1 7 l 25
 0 7 l 29
0 0 m 1
 0 5.099609375 l 1
 1 5.099609375 l 1
 1 6 l 1
 3 6 l 1
 3 5.099609375 l 1
 4 5.099609375 l 1
 4 0 l 1
 3 0 l 1
 3 2 l 1
 1 2 l 1
 1 0 l 1
 0 0 l 1
3 3 m 1
 3 5.099609375 l 1
 1 5.099609375 l 1
 1 3 l 1
 3 3 l 1
EndSplineSet
EndChar

StartChar: Atilde
Encoding: 195 195 195
Width: 5
Flags: HW
LayerCount: 2
Fore
SplineSet
0 7 m 29
 1 7 l 25
 1 8 l 25
 2 8 l 25
 2 7 l 25
 3 7 l 25
 3 8 l 25
 4 8 l 25
 4 9 l 25
 3 9 l 25
 3 8 l 25
 2 8 l 25
 2 9 l 25
 1 9 l 25
 1 8 l 25
 0 8 l 25
 0 7 l 29
0 0 m 1
 0 5.099609375 l 1
 1 5.099609375 l 1
 1 6 l 1
 3 6 l 1
 3 5.099609375 l 1
 4 5.099609375 l 1
 4 0 l 1
 3 0 l 1
 3 2 l 1
 1 2 l 1
 1 0 l 1
 0 0 l 1
3 3 m 1
 3 5.099609375 l 1
 1 5.099609375 l 1
 1 3 l 1
 3 3 l 1
EndSplineSet
EndChar

StartChar: Adieresis
Encoding: 196 196 196
Width: 5
Flags: HW
LayerCount: 2
Fore
SplineSet
3 9 m 29
 3 7 l 25
 4 7 l 25
 4 9 l 25
 3 9 l 29
1 9 m 25
 1 7 l 25
 0 7 l 25
 0 9 l 25
 1 9 l 25
0 0 m 1
 0 5.099609375 l 1
 1 5.099609375 l 1
 1 6 l 1
 3 6 l 1
 3 5.099609375 l 1
 4 5.099609375 l 1
 4 0 l 1
 3 0 l 1
 3 2 l 1
 1 2 l 1
 1 0 l 1
 0 0 l 1
3 3 m 1
 3 5.099609375 l 1
 1 5.099609375 l 1
 1 3 l 1
 3 3 l 1
EndSplineSet
EndChar

StartChar: Aring
Encoding: 197 197 197
Width: 5
Flags: HW
LayerCount: 2
Fore
SplineSet
1 7 m 29
 3 7 l 25
 3 9 l 25
 1 9 l 25
 1 7 l 29
0 0 m 1
 0 5.099609375 l 1
 1 5.099609375 l 1
 1 6 l 1
 3 6 l 1
 3 5.099609375 l 1
 4 5.099609375 l 1
 4 0 l 1
 3 0 l 1
 3 2 l 1
 1 2 l 1
 1 0 l 1
 0 0 l 1
3 3 m 1
 3 5.099609375 l 1
 1 5.099609375 l 1
 1 3 l 1
 3 3 l 1
EndSplineSet
EndChar

StartChar: AE
Encoding: 198 198 198
Width: 5
Flags: HW
LayerCount: 2
Fore
SplineSet
0 0 m 1
 0 6 l 1
 1 6 l 1
 1 4 l 1
 2 4 l 1
 2 6 l 1
 1 6 l 1
 1 7 l 1
 4 7 l 1
 4 6 l 1
 3 6 l 1
 3 4 l 1
 4 4 l 1
 4 3 l 1
 3 3 l 1
 3 1 l 1
 4 1 l 1
 4 0 l 1
 2 0 l 1
 2 3 l 1
 1 3 l 1
 1 0 l 1
 0 0 l 1
EndSplineSet
EndChar

StartChar: Ccedilla
Encoding: 199 199 199
Width: 5
Flags: HW
LayerCount: 2
Fore
SplineSet
4 5.099609375 m 25
 4 6 l 25
 3 6 l 25
 3 7 l 25
 1 7 l 25
 1 6 l 25
 0 6 l 25
 0 2 l 25
 1 2 l 25
 1 1 l 25
 3 1 l 25
 3 0 l 25
 2 0 l 25
 2 -1 l 25
 3 -1 l 25
 3 0 l 25
 4 0 l 25
 4 1 l 25
 3 1 l 25
 3 2 l 25
 4 2 l 25
 4 3 l 25
 3 3 l 25
 3 2 l 25
 1 2 l 25
 1 6 l 25
 3 6 l 25
 3 5.099609375 l 25
 4 5.099609375 l 25
EndSplineSet
EndChar

StartChar: Egrave
Encoding: 200 200 200
Width: 5
Flags: HW
LayerCount: 2
Fore
SplineSet
1 9 m 29
 1 8 l 29
 2 8 l 29
 2 7 l 29
 3 7 l 29
 3 8 l 29
 2 8 l 29
 2 9 l 29
 1 9 l 29
0 6 m 29
 4 6 l 29
 4 5.099609375 l 29
 1 5.099609375 l 29
 1 4 l 29
 3 4 l 29
 3 3 l 29
 1 3 l 29
 1 1 l 29
 4 1 l 29
 4 0 l 29
 0 0 l 29
 0 6 l 29
EndSplineSet
EndChar

StartChar: Eacute
Encoding: 201 201 201
Width: 5
Flags: HW
LayerCount: 2
Fore
SplineSet
1 7 m 1
 1 8 l 1
 2 8 l 1
 2 9 l 1
 3 9 l 1
 3 8 l 1
 2 8 l 1
 2 7 l 1
 1 7 l 1
0 6 m 5
 4 6 l 5
 4 5.099609375 l 5
 1 5.099609375 l 5
 1 4 l 5
 3 4 l 5
 3 3 l 5
 1 3 l 5
 1 1 l 5
 4 1 l 5
 4 0 l 5
 0 0 l 5
 0 6 l 5
EndSplineSet
EndChar

StartChar: Ecircumflex
Encoding: 202 202 202
Width: 5
Flags: HW
LayerCount: 2
Fore
SplineSet
0 7 m 29
 0 8 l 25
 1 8 l 25
 1 9 l 25
 3 9 l 25
 3 8 l 25
 4 8 l 25
 4 7 l 25
 3 7 l 25
 3 8 l 25
 1 8 l 25
 1 7 l 25
 0 7 l 29
0 6 m 1
 4 6 l 1
 4 5.099609375 l 1
 1 5.099609375 l 1
 1 4 l 1
 3 4 l 1
 3 3 l 1
 1 3 l 1
 1 1 l 1
 4 1 l 1
 4 0 l 1
 0 0 l 1
 0 6 l 1
EndSplineSet
EndChar

StartChar: Edieresis
Encoding: 203 203 203
Width: 5
Flags: HW
LayerCount: 2
Fore
SplineSet
3 7 m 29
 3 9 l 25
 4 9 l 25
 4 7 l 25
 3 7 l 29
0 7 m 25
 0 9 l 25
 1 9 l 25
 1 7 l 25
 0 7 l 25
0 6 m 1
 4 6 l 1
 4 5.099609375 l 1
 1 5.099609375 l 1
 1 4 l 1
 3 4 l 1
 3 3 l 1
 1 3 l 1
 1 1 l 1
 4 1 l 1
 4 0 l 1
 0 0 l 1
 0 6 l 1
EndSplineSet
EndChar

StartChar: Igrave
Encoding: 204 204 204
Width: 5
Flags: HW
LayerCount: 2
Fore
SplineSet
1 9 m 25
 2 9 l 25
 2 8 l 25
 3 8 l 25
 3 7 l 25
 2 7 l 25
 2 8 l 25
 1 8 l 25
 1 9 l 25
1 6 m 29
 4 6 l 29
 4 5.099609375 l 29
 3 5.099609375 l 29
 3 1 l 29
 4 1 l 29
 4 0 l 29
 1 0 l 29
 1 1 l 29
 2 1 l 29
 2 5.099609375 l 29
 1 5.099609375 l 29
 1 6 l 29
EndSplineSet
EndChar

StartChar: Iacute
Encoding: 205 205 205
Width: 5
Flags: HW
LayerCount: 2
Fore
SplineSet
1 7 m 29
 1 8 l 25
 2 8 l 25
 2 9 l 25
 3 9 l 25
 3 8 l 25
 2 8 l 25
 2 7 l 25
 1 7 l 29
1 6 m 25
 4 6 l 25
 4 5.099609375 l 25
 3 5.099609375 l 25
 3 1 l 25
 4 1 l 25
 4 0 l 25
 1 0 l 25
 1 1 l 25
 2 1 l 25
 2 5.099609375 l 25
 1 5.099609375 l 25
 1 6 l 25
EndSplineSet
EndChar

StartChar: Icircumflex
Encoding: 206 206 206
Width: 5
Flags: HW
LayerCount: 2
Fore
SplineSet
1 7 m 29
 1 8 l 25
 2 8 l 25
 2 9 l 25
 3 9 l 25
 3 8 l 25
 4 8 l 25
 4 7 l 25
 3 7 l 25
 3 8 l 25
 2 8 l 25
 2 7 l 25
 1 7 l 29
4 6 m 1025
1 6 m 1025
1 6 m 1
 4 6 l 1
 4 5.099609375 l 1
 3 5.099609375 l 1
 3 1 l 1
 4 1 l 1
 4 0 l 1
 1 0 l 1
 1 1 l 1
 2 1 l 1
 2 5.099609375 l 1
 1 5.099609375 l 1
 1 6 l 1
EndSplineSet
EndChar

StartChar: Idieresis
Encoding: 207 207 207
Width: 5
Flags: HW
LayerCount: 2
Fore
SplineSet
0 7 m 25
 0 8 l 25
 1 8 l 25
 1 9 l 25
 2 9 l 29
 2 8 l 29
 3 8 l 29
 3 9 l 29
 4 9 l 29
 4 8 l 29
 3 8 l 29
 3 7 l 29
 2 7 l 29
 2 8 l 29
 1 8 l 25
 1 7 l 25
 0 7 l 25
1 6 m 25
 4 6 l 25
 4 5.099609375 l 25
 3 5.099609375 l 25
 3 1 l 25
 4 1 l 25
 4 0 l 25
 1 0 l 25
 1 1 l 25
 2 1 l 25
 2 5.099609375 l 25
 1 5.099609375 l 25
 1 6 l 25
EndSplineSet
EndChar

StartChar: Eth
Encoding: 208 208 208
Width: 5
Flags: HW
LayerCount: 2
Fore
SplineSet
1 7 m 1
 4 7 l 1
 4 6 l 1
 2 6 l 1
 2 4 l 0
 3 4 l 0
 3 3 l 0
 2 3 l 0
 2 1 l 1
 4 1 l 1
 4 6 l 1
 5 6 l 5
 5 1 l 5
 4 1 l 1
 4 0 l 1
 1 0 l 1
 1 3 l 0
 0 3 l 0
 0 4 l 0
 1 4 l 0
 1 7 l 1
EndSplineSet
EndChar

StartChar: Ntilde
Encoding: 209 209 209
Width: 5
Flags: HW
LayerCount: 2
Fore
SplineSet
0 7 m 1
 0 8 l 1
 1 8 l 1
 1 9 l 1
 2 9 l 1
 2 8 l 1
 3 8 l 1
 3 9 l 1
 4 9 l 1
 4 8 l 1
 3 8 l 1
 3 7 l 1
 2 7 l 1
 2 8 l 1
 1 8 l 1
 1 7 l 1
 0 7 l 1
0 0 m 1
 0 6 l 1
 1 6 l 1
 1 5.099609375 l 1
 2 5.099609375 l 1
 2 4 l 1
 3 4 l 1
 3 6 l 1
 4 6 l 1
 4 0 l 1
 3 0 l 1
 3 3 l 1
 2 3 l 1
 2 4 l 1
 1 4 l 1
 1 0 l 1
 0 0 l 1
EndSplineSet
EndChar

StartChar: Ograve
Encoding: 210 210 210
Width: 5
Flags: HW
LayerCount: 2
Fore
SplineSet
1 9 m 29
 2 9 l 25
 2 8 l 25
 3 8 l 25
 3 7 l 25
 2 7 l 25
 2 8 l 25
 1 8 l 25
 1 9 l 29
1 1 m 25
 3 1 l 25
 3 5.099609375 l 25
 1 5.099609375 l 25
 1 1 l 25
1 0 m 25
 1 1 l 25
 0 1 l 25
 0 5.099609375 l 25
 1 5.099609375 l 25
 1 6 l 25
 3 6 l 25
 3 5.099609375 l 25
 4 5.099609375 l 25
 4 1 l 25
 3 1 l 25
 3 0 l 25
 1 0 l 25
EndSplineSet
EndChar

StartChar: Oacute
Encoding: 211 211 211
Width: 5
Flags: HW
LayerCount: 2
Fore
SplineSet
1 9 m 29
 2 9 l 25
 2 8 l 25
 3 8 l 25
 3 7 l 25
 2 7 l 25
 2 8 l 25
 1 8 l 25
 1 9 l 29
1 1 m 25
 3 1 l 25
 3 5.099609375 l 25
 1 5.099609375 l 25
 1 1 l 25
1 0 m 25
 1 1 l 25
 0 1 l 25
 0 5.099609375 l 25
 1 5.099609375 l 25
 1 6 l 25
 3 6 l 25
 3 5.099609375 l 25
 4 5.099609375 l 25
 4 1 l 25
 3 1 l 25
 3 0 l 25
 1 0 l 25
EndSplineSet
EndChar

StartChar: Ocircumflex
Encoding: 212 212 212
Width: 5
Flags: HW
LayerCount: 2
Fore
SplineSet
0 7 m 29
 0 8 l 25
 1 8 l 25
 1 9 l 25
 3 9 l 25
 3 8 l 25
 4 8 l 25
 4 7 l 25
 3 7 l 25
 3 8 l 25
 1 8 l 25
 1 7 l 25
 0 7 l 29
1 1 m 25
 3 1 l 25
 3 5.099609375 l 25
 1 5.099609375 l 25
 1 1 l 25
1 0 m 25
 1 1 l 25
 0 1 l 25
 0 5.099609375 l 25
 1 5.099609375 l 25
 1 6 l 25
 3 6 l 25
 3 5.099609375 l 25
 4 5.099609375 l 25
 4 1 l 25
 3 1 l 25
 3 0 l 25
 1 0 l 25
EndSplineSet
EndChar

StartChar: Otilde
Encoding: 213 213 213
Width: 5
Flags: HW
LayerCount: 2
Fore
SplineSet
0 7 m 29
 0 8 l 25
 1 8 l 25
 1 9 l 25
 2 9 l 25
 2 8 l 25
 3 8 l 25
 3 9 l 25
 4 9 l 25
 4 8 l 25
 3 8 l 25
 3 7 l 25
 2 7 l 25
 2 8 l 25
 1 8 l 25
 1 7 l 25
 0 7 l 29
1 1 m 25
 3 1 l 25
 3 5.099609375 l 25
 1 5.099609375 l 25
 1 1 l 25
1 0 m 25
 1 1 l 25
 0 1 l 25
 0 5.099609375 l 25
 1 5.099609375 l 25
 1 6 l 25
 3 6 l 25
 3 5.099609375 l 25
 4 5.099609375 l 25
 4 1 l 25
 3 1 l 25
 3 0 l 25
 1 0 l 25
EndSplineSet
EndChar

StartChar: Odieresis
Encoding: 214 214 214
Width: 5
Flags: HW
LayerCount: 2
Fore
SplineSet
3 7 m 29
 3 9 l 25
 4 9 l 25
 4 7 l 25
 3 7 l 29
0 7 m 25
 0 9 l 25
 1 9 l 25
 1 7 l 25
 0 7 l 25
1 1 m 25
 3 1 l 25
 3 5.099609375 l 25
 1 5.099609375 l 25
 1 1 l 25
1 0 m 25
 1 1 l 25
 0 1 l 25
 0 5.099609375 l 25
 1 5.099609375 l 25
 1 6 l 25
 3 6 l 25
 3 5.099609375 l 25
 4 5.099609375 l 25
 4 1 l 25
 3 1 l 25
 3 0 l 25
 1 0 l 25
EndSplineSet
EndChar

StartChar: multiply
Encoding: 215 215 215
Width: 5
Flags: HW
LayerCount: 2
Fore
SplineSet
0 9 m 25
 1 9 l 25
 1 7 l 25
 2 7 l 25
 2 5.099609375 l 25
 3 5.099609375 l 25
 3 7 l 25
 4 7 l 25
 4 9 l 1
 5 9 l 29
 5 7 l 29
 4 7 l 1
 4 5.099609375 l 25
 3 5.099609375 l 25
 3 3 l 25
 4 3 l 25
 4 1 l 1
 5 1 l 29
 5 -1 l 29
 4 -1 l 1
 4 1 l 25
 3 1 l 25
 3 3 l 25
 2 3 l 25
 2 1 l 25
 1 1 l 25
 1 -1 l 25
 0 -1 l 25
 0 1 l 25
 1 1 l 25
 1 3 l 25
 2 3 l 25
 2 5.099609375 l 25
 1 5.099609375 l 25
 1 7 l 25
 0 7 l 25
 0 9 l 25
EndSplineSet
EndChar

StartChar: Oslash
Encoding: 216 216 216
Width: 5
Flags: HW
LayerCount: 2
Fore
SplineSet
0 -1 m 1
 0 1 l 1
 1 1 l 1
 1 3 l 1
 2 3 l 1
 2 5.099609375 l 1
 3 5.099609375 l 1
 3 7 l 1
 1 7 l 1
 1 3 l 1
 0 3 l 1
 0 7 l 1
 1 7 l 1
 1 8 l 1
 3 8 l 1
 3 7 l 1
 4 7 l 1
 4 9 l 1
 5 9 l 5
 5 7 l 5
 4 7 l 1
 4 5.099609375 l 1
 3 5.099609375 l 1
 3 3 l 1
 2 3 l 1
 2 1 l 1
 4 1 l 1
 4 5.099609375 l 1
 5 5.099609375 l 5
 5 1 l 5
 4 1 l 1
 4 0 l 1
 2 0 l 1
 2 1 l 1
 1 1 l 1
 1 -1 l 1
 0 -1 l 1
EndSplineSet
EndChar

StartChar: Ugrave
Encoding: 217 217 217
Width: 5
Flags: HW
LayerCount: 2
Fore
SplineSet
1 9 m 25
 2 9 l 25
 2 8 l 25
 3 8 l 25
 3 7 l 25
 2 7 l 25
 2 8 l 25
 1 8 l 25
 1 9 l 25
1 0 m 29
 1 1 l 29
 0 1 l 29
 0 6 l 29
 1 6 l 29
 1 1 l 29
 3 1 l 29
 3 6 l 29
 4 6 l 29
 4 1 l 29
 3 1 l 29
 3 0 l 29
 1 0 l 29
EndSplineSet
EndChar

StartChar: Uacute
Encoding: 218 218 218
Width: 5
Flags: HW
LayerCount: 2
Fore
SplineSet
1 7 m 29
 1 8 l 25
 2 8 l 25
 2 9 l 25
 3 9 l 25
 3 8 l 25
 2 8 l 25
 2 7 l 25
 1 7 l 29
1 0 m 25
 1 1 l 25
 0 1 l 25
 0 6 l 25
 1 6 l 25
 1 1 l 25
 3 1 l 25
 3 6 l 25
 4 6 l 25
 4 1 l 25
 3 1 l 25
 3 0 l 25
 1 0 l 25
EndSplineSet
EndChar

StartChar: Ucircumflex
Encoding: 219 219 219
Width: 5
Flags: HW
LayerCount: 2
Fore
SplineSet
0 7 m 1
 0 8 l 1
 1 8 l 1
 1 9 l 1
 3 9 l 1
 3 8 l 1
 4 8 l 1
 4 7 l 1
 3 7 l 1
 3 8 l 1
 1 8 l 1
 1 7 l 1
 0 7 l 1
1 1 m 1
 0 1 l 1
 0 6 l 1
 1 6 l 1
 1 1 l 1
1 1 m 1
 3 1 l 1
 3 6 l 1
 4 6 l 1
 4 1 l 1
 3 1 l 1
 3 0 l 1
 1 0 l 1
 1 1 l 1
EndSplineSet
EndChar

StartChar: Udieresis
Encoding: 220 220 220
Width: 5
Flags: HW
LayerCount: 2
Fore
SplineSet
3 7 m 29
 3 9 l 25
 4 9 l 25
 4 7 l 25
 3 7 l 29
0 7 m 25
 0 9 l 25
 1 9 l 25
 1 7 l 25
 0 7 l 25
1 0 m 25
 1 1 l 25
 0 1 l 25
 0 6 l 25
 1 6 l 25
 1 1 l 25
 3 1 l 25
 3 6 l 25
 4 6 l 25
 4 1 l 25
 3 1 l 25
 3 0 l 25
 1 0 l 25
EndSplineSet
EndChar

StartChar: Yacute
Encoding: 221 221 221
Width: 5
Flags: HW
LayerCount: 2
Fore
SplineSet
1 9 m 29
 2 9 l 25
 2 8 l 25
 3 8 l 25
 3 7 l 25
 2 7 l 25
 2 8 l 25
 1 8 l 25
 1 9 l 29
0 6 m 25
 1 6 l 25
 1 4 l 25
 3 4 l 25
 3 6 l 25
 4 6 l 25
 4 1 l 25
 3 1 l 25
 3 0 l 25
 1 0 l 25
 1 1 l 25
 0 1 l 25
 0 2 l 25
 1 2 l 25
 1 1 l 25
 3 1 l 25
 3 3 l 25
 1 3 l 25
 1 4 l 25
 0 4 l 25
 0 6 l 25
EndSplineSet
EndChar

StartChar: Thorn
Encoding: 222 222 222
Width: 5
Flags: HW
LayerCount: 2
Fore
SplineSet
0 9 m 1
 1 9 l 1
 1 7 l 1
 3 7 l 1
 3 6 l 1
 1 6 l 1
 1 2 l 1
 3 2 l 1
 3 3 l 1
 4 3 l 1
 4 5.099609375 l 1
 3 5.099609375 l 1
 3 6 l 1
 4 6 l 1
 4 5.099609375 l 1
 5 5.099609375 l 5
 5 3 l 5
 4 3 l 1
 4 2 l 1
 3 2 l 1
 3 1 l 1
 1 1 l 1
 1 -1 l 1
 0 -1 l 1
 0 9 l 1
EndSplineSet
EndChar

StartChar: germandbls
Encoding: 223 223 223
Width: 5
Flags: HW
LayerCount: 2
Fore
SplineSet
0 0 m 29
 0 6 l 25
 1 6 l 25
 1 7 l 25
 3 7 l 25
 3 6 l 25
 4 6 l 25
 4 4 l 25
 3 4 l 25
 3 3 l 25
 4 3 l 25
 4 1 l 25
 3 1 l 25
 3 0 l 25
 2 0 l 25
 2 1 l 25
 3 1 l 25
 3 3 l 25
 2 3 l 25
 2 4 l 25
 3 4 l 25
 3 6 l 25
 1 6 l 25
 1 0 l 25
 0 0 l 29
EndSplineSet
EndChar

StartChar: agrave
Encoding: 224 224 224
Width: 5
Flags: HW
LayerCount: 2
Fore
SplineSet
1 8 m 29
 1 7 l 25
 2 7 l 25
 2 6 l 25
 3 6 l 25
 3 7 l 25
 2 7 l 25
 2 8 l 25
 1 8 l 29
1 1 m 25
 3 1 l 25
 3 2 l 25
 1 2 l 25
 1 1 l 25
1 0 m 25
 1 1 l 25
 0 1 l 25
 0 2 l 25
 1 2 l 25
 1 3 l 25
 3 3 l 25
 3 4 l 25
 1 4 l 25
 1 5.099609375 l 25
 3 5.099609375 l 25
 3 4 l 25
 4 4 l 25
 4 1 l 25
 3 1 l 25
 3 0 l 25
 1 0 l 25
EndSplineSet
EndChar

StartChar: aacute
Encoding: 225 225 225
Width: 5
Flags: HW
LayerCount: 2
Fore
SplineSet
1 6 m 29
 1 7 l 25
 2 7 l 25
 2 8 l 25
 3 8 l 25
 3 7 l 25
 2 7 l 25
 2 6 l 25
 1 6 l 29
1 1 m 25
 3 1 l 25
 3 2 l 25
 1 2 l 25
 1 1 l 25
1 0 m 25
 1 1 l 25
 0 1 l 25
 0 2 l 25
 1 2 l 25
 1 3 l 25
 3 3 l 25
 3 4 l 25
 1 4 l 25
 1 5.099609375 l 25
 3 5.099609375 l 25
 3 4 l 25
 4 4 l 25
 4 1 l 25
 3 1 l 25
 3 0 l 25
 1 0 l 25
EndSplineSet
EndChar

StartChar: acircumflex
Encoding: 226 226 226
Width: 5
Flags: HW
LayerCount: 2
Fore
SplineSet
1 6 m 29
 0 6 l 25
 0 7 l 25
 1 7 l 25
 1 8 l 25
 3 8 l 25
 3 7 l 25
 4 7 l 25
 4 6 l 25
 3 6 l 25
 3 7 l 25
 1 7 l 25
 1 6 l 29
1 1 m 25
 3 1 l 25
 3 2 l 25
 1 2 l 25
 1 1 l 25
1 0 m 25
 1 1 l 25
 0 1 l 25
 0 2 l 25
 1 2 l 25
 1 3 l 25
 3 3 l 25
 3 4 l 25
 1 4 l 25
 1 5.099609375 l 25
 3 5.099609375 l 25
 3 4 l 25
 4 4 l 25
 4 1 l 25
 3 1 l 25
 3 0 l 25
 1 0 l 25
EndSplineSet
EndChar

StartChar: atilde
Encoding: 227 227 227
Width: 5
Flags: HW
LayerCount: 2
Fore
SplineSet
0 6 m 29
 0 7 l 25
 1 7 l 25
 1 8 l 25
 2 8 l 25
 2 7 l 25
 3 7 l 25
 3 8 l 25
 4 8 l 25
 4 7 l 25
 3 7 l 25
 3 6 l 25
 2 6 l 25
 2 7 l 25
 1 7 l 25
 1 6 l 25
 0 6 l 29
1 1 m 25
 3 1 l 25
 3 2 l 25
 1 2 l 25
 1 1 l 25
1 0 m 25
 1 1 l 25
 0 1 l 25
 0 2 l 25
 1 2 l 25
 1 3 l 25
 3 3 l 25
 3 4 l 25
 1 4 l 25
 1 5.099609375 l 25
 3 5.099609375 l 25
 3 4 l 25
 4 4 l 25
 4 1 l 25
 3 1 l 25
 3 0 l 25
 1 0 l 25
EndSplineSet
EndChar

StartChar: adieresis
Encoding: 228 228 228
Width: 5
Flags: HW
LayerCount: 2
Fore
SplineSet
3 6 m 29
 3 8 l 25
 4 8 l 25
 4 6 l 25
 3 6 l 29
1 6 m 25
 0 6 l 25
 0 8 l 25
 1 8 l 25
 1 6 l 25
1 1 m 25
 3 1 l 25
 3 2 l 25
 1 2 l 25
 1 1 l 25
1 0 m 25
 1 1 l 25
 0 1 l 25
 0 2 l 25
 1 2 l 25
 1 3 l 25
 3 3 l 25
 3 4 l 25
 1 4 l 25
 1 5.099609375 l 25
 3 5.099609375 l 25
 3 4 l 25
 4 4 l 25
 4 1 l 25
 3 1 l 25
 3 0 l 25
 1 0 l 25
EndSplineSet
EndChar

StartChar: aring
Encoding: 229 229 229
Width: 5
Flags: HW
LayerCount: 2
Fore
SplineSet
1 6 m 29
 1 8 l 25
 3 8 l 25
 3 6 l 25
 1 6 l 29
1 1 m 25
 3 1 l 25
 3 2 l 25
 1 2 l 25
 1 1 l 25
1 0 m 25
 1 1 l 25
 0 1 l 25
 0 2 l 25
 1 2 l 25
 1 3 l 25
 3 3 l 25
 3 4 l 25
 1 4 l 25
 1 5.099609375 l 25
 3 5.099609375 l 25
 3 4 l 25
 4 4 l 25
 4 1 l 25
 3 1 l 25
 3 0 l 25
 1 0 l 25
EndSplineSet
EndChar

StartChar: ae
Encoding: 230 230 230
Width: 5
Flags: HW
LayerCount: 2
Fore
SplineSet
0 3 m 1
 1 3 l 1
 1 4 l 1
 2 4 l 1
 2 3 l 1
 3 3 l 1
 3 4 l 1
 2 4 l 1
 2 5.099609375 l 1
 3 5.099609375 l 1
 3 4 l 1
 4 4 l 1
 4 2 l 1
 3 2 l 1
 3 1 l 1
 4 1 l 1
 4 0 l 1
 3 0 l 1
 3 1 l 1
 2 1 l 1
 2 2 l 1
 1 2 l 1
 1 1 l 1
 2 1 l 1
 2 0 l 1
 1 0 l 1
 1 1 l 1
 0 1 l 1
 0 2 l 1
 0 3 l 1
1 4 m 1
 0 4 l 1
 0 5.099609375 l 1
 1 5.099609375 l 1
 1 4 l 1
EndSplineSet
EndChar

StartChar: ccedilla
Encoding: 231 231 231
Width: 5
Flags: HW
LayerCount: 2
Fore
SplineSet
3 1 m 29
 3 0 l 25
 2 0 l 25
 2 -1 l 25
 3 -1 l 25
 3 0 l 25
 4 0 l 25
 4 1 l 25
 3 1 l 29
0 2 m 25
 0 5.099609375 l 25
 1 5.099609375 l 25
 1 6 l 25
 3 6 l 25
 3 5.099609375 l 25
 4 5.099609375 l 25
 4 4 l 25
 3 4 l 25
 3 5.099609375 l 25
 1 5.099609375 l 25
 1 2 l 25
 3 2 l 25
 3 3 l 25
 4 3 l 25
 4 2 l 25
 3 2 l 25
 3 1 l 25
 1 1 l 25
 1 2 l 25
 0 2 l 25
EndSplineSet
EndChar

StartChar: egrave
Encoding: 232 232 232
Width: 5
Flags: HW
LayerCount: 2
Fore
SplineSet
1 8 m 29
 2 8 l 25
 2 7 l 25
 3 7 l 25
 3 6 l 25
 2 6 l 25
 2 7 l 25
 1 7 l 25
 1 8 l 29
1 4 m 25
 1 3 l 25
 3 3 l 25
 3 4 l 25
 1 4 l 25
0 1 m 25
 0 4 l 25
 1 4 l 25
 1 5.099609375 l 25
 3 5.099609375 l 25
 3 4 l 25
 4 4 l 25
 4 2 l 25
 1 2 l 25
 1 1 l 25
 3 1 l 25
 3 0 l 25
 1 0 l 25
 1 1 l 25
 0 1 l 25
EndSplineSet
EndChar

StartChar: eacute
Encoding: 233 233 233
Width: 5
Flags: HW
LayerCount: 2
Fore
SplineSet
1 6 m 29
 1 7 l 25
 2 7 l 25
 2 8 l 25
 3 8 l 25
 3 7 l 25
 2 7 l 25
 2 6 l 25
 1 6 l 29
1 4 m 25
 1 3 l 25
 3 3 l 25
 3 4 l 25
 1 4 l 25
0 1 m 25
 0 4 l 25
 1 4 l 25
 1 5.099609375 l 25
 3 5.099609375 l 25
 3 4 l 25
 4 4 l 25
 4 2 l 25
 1 2 l 25
 1 1 l 25
 3 1 l 25
 3 0 l 25
 1 0 l 25
 1 1 l 25
 0 1 l 25
EndSplineSet
EndChar

StartChar: ecircumflex
Encoding: 234 234 234
Width: 5
Flags: HW
LayerCount: 2
Fore
SplineSet
0 6 m 29
 0 7 l 25
 1 7 l 25
 1 8 l 25
 3 8 l 25
 3 7 l 25
 4 7 l 25
 4 6 l 25
 3 6 l 25
 3 7 l 25
 1 7 l 25
 1 6 l 25
 0 6 l 29
1 4 m 25
 1 3 l 25
 3 3 l 25
 3 4 l 25
 1 4 l 25
0 1 m 25
 0 4 l 25
 1 4 l 25
 1 5.099609375 l 25
 3 5.099609375 l 25
 3 4 l 25
 4 4 l 25
 4 2 l 25
 1 2 l 25
 1 1 l 25
 3 1 l 25
 3 0 l 25
 1 0 l 25
 1 1 l 25
 0 1 l 25
EndSplineSet
EndChar

StartChar: edieresis
Encoding: 235 235 235
Width: 5
Flags: HW
LayerCount: 2
Fore
SplineSet
3 6 m 29
 3 8 l 25
 4 8 l 25
 4 6 l 25
 3 6 l 29
1 6 m 25
 0 6 l 25
 0 8 l 25
 1 8 l 25
 1 6 l 25
1 4 m 25
 1 3 l 25
 3 3 l 25
 3 4 l 25
 1 4 l 25
0 1 m 25
 0 4 l 25
 1 4 l 25
 1 5.099609375 l 25
 3 5.099609375 l 25
 3 4 l 25
 4 4 l 25
 4 2 l 25
 1 2 l 25
 1 1 l 25
 3 1 l 25
 3 0 l 25
 1 0 l 25
 1 1 l 25
 0 1 l 25
EndSplineSet
EndChar

StartChar: igrave
Encoding: 236 236 236
Width: 5
Flags: HW
LayerCount: 2
Fore
SplineSet
1 8 m 29
 2 8 l 25
 2 7 l 25
 3 7 l 25
 3 6 l 25
 2 6 l 25
 2 7 l 25
 1 7 l 25
 1 8 l 29
2 0 m 25
 2 5.099609375 l 25
 3 5.099609375 l 25
 3 0 l 25
 2 0 l 25
EndSplineSet
EndChar

StartChar: iacute
Encoding: 237 237 237
Width: 5
Flags: HW
LayerCount: 2
Fore
SplineSet
1 6 m 29
 1 7 l 25
 2 7 l 25
 2 8 l 25
 3 8 l 25
 3 7 l 25
 2 7 l 25
 2 6 l 25
 1 6 l 29
2 0 m 25
 2 5.099609375 l 25
 3 5.099609375 l 25
 3 0 l 25
 2 0 l 25
EndSplineSet
EndChar

StartChar: icircumflex
Encoding: 238 238 238
Width: 5
Flags: HW
LayerCount: 2
Fore
SplineSet
1 6 m 29
 1 7 l 25
 2 7 l 25
 2 8 l 25
 3 8 l 25
 3 7 l 25
 4 7 l 25
 4 6 l 25
 3 6 l 25
 3 7 l 25
 2 7 l 25
 2 6 l 25
 1 6 l 29
2 0 m 25
 2 5.099609375 l 25
 3 5.099609375 l 25
 3 0 l 25
 2 0 l 25
EndSplineSet
EndChar

StartChar: idieresis
Encoding: 239 239 239
Width: 5
Flags: HW
LayerCount: 2
Fore
SplineSet
3 6 m 29
 3 8 l 25
 4 8 l 25
 4 6 l 25
 3 6 l 29
2 6 m 25
 2 8 l 25
 1 8 l 25
 1 6 l 25
 2 6 l 25
2 0 m 25
 2 5.099609375 l 25
 3 5.099609375 l 25
 3 0 l 25
 2 0 l 25
EndSplineSet
EndChar

StartChar: eth
Encoding: 240 240 240
Width: 5
Flags: HW
LayerCount: 2
Fore
SplineSet
1 7 m 1
 1 6 l 1
 0 6 l 1
 0 7 l 1
 1 7 l 1
1 7 m 1
 1 8 l 1
 0 8 l 1
 0 9 l 1
 1 9 l 1
 1 8 l 1
 2 8 l 1
 2 9 l 1
 3 9 l 1
 3 8 l 1
 2 8 l 1
 2 7 l 1
 1 7 l 1
2 7 m 1
 3 7 l 1
 3 6 l 1
 2 6 l 1
 2 7 l 1
3 6 m 1
 4 6 l 1
 4 1 l 1
 3 1 l 1
 3 4 l 1
 1 4 l 1
 1 1 l 1
 3 1 l 1
 3 0 l 1
 1 0 l 1
 1 1 l 1
 0 1 l 1
 0 4 l 1
 1 4 l 1
 1 5.099609375 l 1
 3 5.099609375 l 1
 3 6 l 1
EndSplineSet
EndChar

StartChar: ntilde
Encoding: 241 241 241
Width: 5
Flags: HW
LayerCount: 2
Fore
SplineSet
0 6 m 29
 1 6 l 25
 1 7 l 25
 2 7 l 25
 2 6 l 25
 3 6 l 25
 3 7 l 25
 4 7 l 25
 4 8 l 25
 3 8 l 25
 3 7 l 25
 2 7 l 25
 2 8 l 25
 1 8 l 25
 1 7 l 25
 0 7 l 25
 0 6 l 29
0 4 m 25
 1 4 l 25
 1 5.099609375 l 25
 3 5.099609375 l 25
 3 4 l 25
 4 4 l 25
 4 0 l 25
 3 0 l 25
 3 4 l 25
 1 4 l 25
 1 0 l 25
 0 0 l 25
 0 4 l 25
EndSplineSet
EndChar

StartChar: ograve
Encoding: 242 242 242
Width: 5
Flags: HW
LayerCount: 2
Fore
SplineSet
1 7 m 29
 2 7 l 25
 2 6 l 25
 3 6 l 25
 3 7 l 25
 2 7 l 25
 2 8 l 25
 1 8 l 25
 1 7 l 29
1 1 m 25
 3 1 l 25
 3 4 l 25
 1 4 l 25
 1 1 l 25
1 0 m 25
 1 1 l 25
 0 1 l 25
 0 4 l 25
 1 4 l 25
 1 5.099609375 l 25
 3 5.099609375 l 25
 3 4 l 25
 4 4 l 25
 4 1 l 25
 3 1 l 25
 3 0 l 25
 1 0 l 25
EndSplineSet
EndChar

StartChar: oacute
Encoding: 243 243 243
Width: 5
Flags: HW
LayerCount: 2
Fore
SplineSet
1 6 m 29
 1 7 l 25
 2 7 l 25
 2 8 l 25
 3 8 l 25
 3 7 l 25
 2 7 l 25
 2 6 l 25
 1 6 l 29
1 1 m 25
 3 1 l 25
 3 4 l 25
 1 4 l 25
 1 1 l 25
1 0 m 25
 1 1 l 25
 0 1 l 25
 0 4 l 25
 1 4 l 25
 1 5.099609375 l 25
 3 5.099609375 l 25
 3 4 l 25
 4 4 l 25
 4 1 l 25
 3 1 l 25
 3 0 l 25
 1 0 l 25
EndSplineSet
EndChar

StartChar: ocircumflex
Encoding: 244 244 244
Width: 5
Flags: HW
LayerCount: 2
Fore
SplineSet
0 6 m 29
 1 6 l 25
 1 7 l 25
 3 7 l 25
 3 6 l 25
 4 6 l 25
 4 7 l 25
 3 7 l 25
 3 8 l 25
 1 8 l 25
 1 7 l 25
 0 7 l 25
 0 6 l 29
1 1 m 25
 3 1 l 25
 3 4 l 25
 1 4 l 25
 1 1 l 25
1 0 m 25
 1 1 l 25
 0 1 l 25
 0 4 l 25
 1 4 l 25
 1 5.099609375 l 25
 3 5.099609375 l 25
 3 4 l 25
 4 4 l 25
 4 1 l 25
 3 1 l 25
 3 0 l 25
 1 0 l 25
EndSplineSet
EndChar

StartChar: otilde
Encoding: 245 245 245
Width: 5
Flags: HW
LayerCount: 2
Fore
SplineSet
0 6 m 29
 1 6 l 25
 1 7 l 25
 2 7 l 25
 2 6 l 25
 3 6 l 25
 3 7 l 25
 4 7 l 25
 4 8 l 25
 3 8 l 25
 3 7 l 25
 2 7 l 25
 2 8 l 25
 1 8 l 25
 1 7 l 25
 0 7 l 25
 0 6 l 29
1 1 m 25
 3 1 l 25
 3 4 l 25
 1 4 l 25
 1 1 l 25
1 0 m 25
 1 1 l 25
 0 1 l 25
 0 4 l 25
 1 4 l 25
 1 5.099609375 l 25
 3 5.099609375 l 25
 3 4 l 25
 4 4 l 25
 4 1 l 25
 3 1 l 25
 3 0 l 25
 1 0 l 25
EndSplineSet
EndChar

StartChar: odieresis
Encoding: 246 246 246
Width: 5
Flags: HW
LayerCount: 2
Fore
SplineSet
3 6 m 29
 3 8 l 25
 4 8 l 25
 4 6 l 25
 3 6 l 29
1 6 m 25
 0 6 l 25
 0 8 l 25
 1 8 l 25
 1 6 l 25
1 1 m 25
 3 1 l 25
 3 4 l 25
 1 4 l 25
 1 1 l 25
1 0 m 25
 1 1 l 25
 0 1 l 25
 0 4 l 25
 1 4 l 25
 1 5.099609375 l 25
 3 5.099609375 l 25
 3 4 l 25
 4 4 l 25
 4 1 l 25
 3 1 l 25
 3 0 l 25
 1 0 l 25
EndSplineSet
EndChar

StartChar: divide
Encoding: 247 247 247
Width: 5
Flags: HW
LayerCount: 2
Fore
SplineSet
2 6 m 25
 2 8 l 25
 3 8 l 25
 3 6 l 25
 2 6 l 25
2 -1 m 25
 2 1 l 25
 3 1 l 25
 3 -1 l 25
 2 -1 l 25
0 4 m 1
 5 4 l 29
 5 3 l 29
 0 3 l 1
 0 4 l 1
EndSplineSet
EndChar

StartChar: oslash
Encoding: 248 248 248
Width: 4
Flags: HW
LayerCount: 2
Fore
SplineSet
0 0 m 1
 0 1 l 1
 1 1 l 1
 1 2 l 1
 2 2 l 1
 2 3 l 1
 3 3 l 1
 3 4 l 1
 1 4 l 1
 1 2 l 1
 0 2 l 1
 0 4 l 1
 1 4 l 1
 1 5.099609375 l 1
 3 5.099609375 l 1
 3 4 l 1
 4 4 l 1
 4 5.099609375 l 1
 5.099609375 5.099609375 l 1
 5.099609375 4 l 1
 4 4 l 1
 4 3 l 1
 3 3 l 1
 3 2 l 1
 2 2 l 1
 2 1 l 1
 4 1 l 1
 4 3 l 1
 5.099609375 3 l 1
 5.099609375 1 l 1
 4 1 l 1
 4 0 l 1
 2 0 l 1
 2 1 l 1
 1 1 l 1
 1 0 l 1
 0 0 l 1
EndSplineSet
EndChar

StartChar: ugrave
Encoding: 249 249 249
Width: 5
Flags: HW
LayerCount: 2
Fore
SplineSet
1 8 m 29
 1 7 l 25
 2 7 l 25
 2 6 l 25
 3 6 l 25
 3 7 l 25
 2 7 l 25
 2 8 l 25
 1 8 l 29
0 5.099609375 m 25
 1 5.099609375 l 25
 1 1 l 25
 3 1 l 25
 3 5.099609375 l 25
 4 5.099609375 l 25
 4 1 l 25
 3 1 l 25
 3 0 l 25
 1 0 l 25
 1 1 l 25
 0 1 l 25
 0 5.099609375 l 25
EndSplineSet
EndChar

StartChar: uacute
Encoding: 250 250 250
Width: 5
Flags: HW
LayerCount: 2
Fore
SplineSet
1 6 m 29
 1 7 l 25
 2 7 l 25
 2 8 l 25
 3 8 l 25
 3 7 l 25
 2 7 l 25
 2 6 l 25
 1 6 l 29
0 5.099609375 m 25
 1 5.099609375 l 25
 1 1 l 25
 3 1 l 25
 3 5.099609375 l 25
 4 5.099609375 l 25
 4 1 l 25
 3 1 l 25
 3 0 l 25
 1 0 l 25
 1 1 l 25
 0 1 l 25
 0 5.099609375 l 25
EndSplineSet
EndChar

StartChar: ucircumflex
Encoding: 251 251 251
Width: 5
Flags: HW
LayerCount: 2
Fore
SplineSet
0 6 m 29
 0 7 l 25
 1 7 l 25
 1 8 l 25
 3 8 l 25
 3 7 l 25
 4 7 l 25
 4 6 l 25
 3 6 l 25
 3 7 l 25
 1 7 l 25
 1 6 l 25
 0 6 l 29
0 5.099609375 m 25
 1 5.099609375 l 25
 1 1 l 25
 3 1 l 25
 3 5.099609375 l 25
 4 5.099609375 l 25
 4 1 l 25
 3 1 l 25
 3 0 l 25
 1 0 l 25
 1 1 l 25
 0 1 l 25
 0 5.099609375 l 25
EndSplineSet
EndChar

StartChar: udieresis
Encoding: 252 252 252
Width: 5
Flags: HW
LayerCount: 2
Fore
SplineSet
3 6 m 29
 3 8 l 25
 4 8 l 25
 4 6 l 25
 3 6 l 29
0 6 m 25
 0 8 l 25
 1 8 l 25
 1 6 l 25
 0 6 l 25
0 5.099609375 m 25
 1 5.099609375 l 25
 1 1 l 25
 3 1 l 25
 3 5.099609375 l 25
 4 5.099609375 l 25
 4 1 l 25
 3 1 l 25
 3 0 l 25
 1 0 l 25
 1 1 l 25
 0 1 l 25
 0 5.099609375 l 25
EndSplineSet
EndChar

StartChar: yacute
Encoding: 253 253 253
Width: 5
Flags: HW
LayerCount: 2
Fore
SplineSet
1 6 m 29
 1 7 l 29
 2 7 l 29
 2 8 l 29
 3 8 l 29
 3 7 l 29
 2 7 l 29
 2 6 l 29
 1 6 l 29
0 5.099609375 m 29
 1 5.099609375 l 29
 1 3 l 29
 3 3 l 29
 3 5.099609375 l 29
 4 5.099609375 l 29
 4 0 l 29
 3 0 l 29
 3 -1 l 29
 1 -1 l 29
 1 0 l 29
 0 0 l 29
 0 1 l 29
 1 1 l 29
 1 0 l 29
 3 0 l 29
 3 2 l 29
 1 2 l 29
 1 3 l 29
 0 3 l 29
 0 5.099609375 l 29
EndSplineSet
EndChar

StartChar: thorn
Encoding: 254 254 254
Width: 4
Flags: HW
LayerCount: 2
Fore
SplineSet
2 6 m 29
 2 5.099609375 l 25
 1 5.099609375 l 25
 1 3 l 25
 2 3 l 25
 2 2 l 25
 4 2 l 25
 4 6 l 25
 2 6 l 29
0 9 m 25
 1 9 l 25
 1 6 l 25
 2 6 l 25
 2 7 l 25
 4 7 l 25
 4 6 l 25
 5.099609375 6 l 25
 5.099609375 2 l 25
 4 2 l 25
 4 1 l 25
 2 1 l 25
 2 2 l 25
 1 2 l 25
 1 -1 l 25
 0 -1 l 25
 0 9 l 25
EndSplineSet
EndChar

StartChar: ydieresis
Encoding: 255 255 255
Width: 5
Flags: HW
LayerCount: 2
Fore
SplineSet
3 6 m 29
 3 8 l 25
 4 8 l 25
 4 6 l 25
 3 6 l 29
1 6 m 25
 0 6 l 25
 0 8 l 25
 1 8 l 25
 1 6 l 25
0 5.099609375 m 25
 1 5.099609375 l 25
 1 3 l 25
 3 3 l 25
 3 5.099609375 l 25
 4 5.099609375 l 25
 4 0 l 25
 3 0 l 25
 3 -1 l 25
 1 -1 l 25
 1 0 l 25
 0 0 l 25
 0 1 l 25
 1 1 l 25
 1 0 l 25
 3 0 l 25
 3 2 l 25
 1 2 l 25
 1 3 l 25
 0 3 l 25
 0 5.099609375 l 25
EndSplineSet
EndChar

StartChar: ellipsis
Encoding: 8230 8230 256
Width: 5
Flags: HW
LayerCount: 2
Fore
SplineSet
4 -1 m 1
 4 1 l 1
 5 1 l 29
 5 -1 l 29
 4 -1 l 1
2 -1 m 25
 2 1 l 25
 3 1 l 25
 3 -1 l 25
 2 -1 l 25
0 -1 m 25
 0 1 l 25
 1 1 l 25
 1 -1 l 25
 0 -1 l 25
EndSplineSet
EndChar

StartChar: exclamdbl
Encoding: 8252 8252 257
Width: 5
Flags: HW
LayerCount: 2
Fore
SplineSet
3 3 m 29
 3 9 l 29
 4 9 l 29
 4 3 l 29
 3 3 l 29
1 3 m 29
 1 9 l 29
 2 9 l 29
 2 3 l 29
 1 3 l 29
3 -1 m 29
 3 1 l 29
 4 1 l 29
 4 -1 l 29
 3 -1 l 29
1 -1 m 29
 1 1 l 29
 2 1 l 29
 2 -1 l 29
 1 -1 l 29
EndSplineSet
EndChar

StartChar: arrowleft
Encoding: 8592 8592 258
Width: 5
Flags: HW
LayerCount: 2
Fore
SplineSet
0 4 m 25
 1 4 l 25
 1 5.099609375 l 25
 2 5.099609375 l 25
 2 4 l 1
 5 4 l 29
 5 3 l 29
 2 3 l 1
 2 2 l 25
 1 2 l 25
 1 3 l 25
 0 3 l 25
 0 4 l 25
EndSplineSet
EndChar

StartChar: arrowup
Encoding: 8593 8593 259
Width: 5
Flags: HW
LayerCount: 2
Fore
SplineSet
2 -1 m 25
 2 7 l 25
 1 7 l 25
 1 8 l 25
 2 8 l 25
 2 9 l 25
 3 9 l 25
 3 8 l 25
 4 8 l 25
 4 7 l 25
 3 7 l 25
 3 -1 l 25
 2 -1 l 25
EndSplineSet
EndChar

StartChar: arrowright
Encoding: 8594 8594 260
Width: 5
Flags: HW
LayerCount: 2
Fore
SplineSet
0 4 m 25
 3 4 l 25
 3 5.099609375 l 25
 4 5.099609375 l 25
 4 4 l 1
 5 4 l 29
 5 3 l 29
 4 3 l 1
 4 2 l 25
 3 2 l 25
 3 3 l 25
 0 3 l 25
 0 4 l 25
EndSplineSet
EndChar

StartChar: arrowdown
Encoding: 8595 8595 261
Width: 5
Flags: HW
LayerCount: 2
Fore
SplineSet
2 9 m 25
 2 1 l 25
 1 1 l 25
 1 0 l 25
 2 0 l 25
 2 -1 l 25
 3 -1 l 25
 3 0 l 25
 4 0 l 25
 4 1 l 25
 3 1 l 25
 3 9 l 25
 2 9 l 25
EndSplineSet
EndChar

StartChar: arrowboth
Encoding: 8596 8596 262
Width: 5
Flags: HW
LayerCount: 2
Fore
SplineSet
0 4 m 25
 1 4 l 25
 1 5.099609375 l 25
 2 5.099609375 l 25
 2 4 l 25
 3 4 l 25
 3 5.099609375 l 25
 4 5.099609375 l 25
 4 4 l 1
 5 4 l 29
 5 3 l 29
 4 3 l 1
 4 2 l 25
 3 2 l 25
 3 3 l 25
 2 3 l 25
 2 2 l 25
 1 2 l 25
 1 3 l 25
 0 3 l 25
 0 4 l 25
EndSplineSet
EndChar

StartChar: arrowupdn
Encoding: 8597 8597 263
Width: 5
Flags: HW
LayerCount: 2
Fore
SplineSet
2 9 m 25
 2 8 l 25
 1 8 l 25
 1 7 l 25
 2 7 l 25
 2 1 l 25
 1 1 l 25
 1 0 l 25
 2 0 l 25
 2 -1 l 25
 3 -1 l 25
 3 0 l 25
 4 0 l 25
 4 1 l 25
 3 1 l 25
 3 7 l 25
 4 7 l 25
 4 8 l 25
 3 8 l 25
 3 9 l 25
 2 9 l 25
EndSplineSet
EndChar

StartChar: arrowupdnbse
Encoding: 8616 8616 264
Width: 5
Flags: HW
LayerCount: 2
Fore
SplineSet
0 -1 m 1
 0 0 l 25
 2 0 l 25
 2 1 l 25
 1 1 l 25
 1 2 l 25
 2 2 l 25
 2 9 l 25
 3 9 l 25
 3 2 l 25
 4 2 l 25
 4 1 l 25
 3 1 l 25
 3 0 l 1
 5 0 l 29
 5 -1 l 29
 0 -1 l 1
EndSplineSet
EndChar

StartChar: upblock
Encoding: 9600 9600 265
Width: 5
Flags: HW
LayerCount: 2
Fore
SplineSet
0 9 m 1
 5 9 l 29
 5 4 l 29
 0 4 l 1
 0 9 l 1
EndSplineSet
EndChar

StartChar: uni2582
Encoding: 9602 9602 266
Width: 5
Flags: HW
LayerCount: 2
Fore
SplineSet
0 -1 m 5
 0 1 l 5
 5 1 l 29
 5 -1 l 29
 0 -1 l 5
EndSplineSet
EndChar

StartChar: dnblock
Encoding: 9604 9604 267
Width: 5
Flags: HW
LayerCount: 2
Fore
SplineSet
0 -1 m 5
 0 4 l 5
 5 4 l 29
 5 -1 l 29
 0 -1 l 5
EndSplineSet
EndChar

StartChar: block
Encoding: 9608 9608 268
Width: 5
Flags: HW
LayerCount: 2
Fore
SplineSet
0 9 m 1
 5 9 l 29
 5 -1 l 29
 0 -1 l 1
 0 9 l 1
EndSplineSet
EndChar

StartChar: lfblock
Encoding: 9612 9612 269
Width: 5
Flags: HW
LayerCount: 2
Fore
SplineSet
0 9 m 25
 3 9 l 25
 3 -1 l 25
 0 -1 l 25
 0 9 l 25
EndSplineSet
EndChar

StartChar: rtblock
Encoding: 9616 9616 270
Width: 5
Flags: HW
LayerCount: 2
Fore
SplineSet
3 9 m 1
 3 -1 l 1
 5 -1 l 29
 5 9 l 29
 3 9 l 1
EndSplineSet
EndChar

StartChar: ltshade
Encoding: 9617 9617 271
Width: 5
Flags: HW
LayerCount: 2
Fore
SplineSet
4 0 m 1
 4 1 l 1
 5 1 l 25
 5 0 l 25
 4 0 l 1
2 -1 m 25
 2 0 l 25
 3 0 l 25
 3 -1 l 25
 2 -1 l 25
4 2 m 25
 3 2 l 25
 3 3 l 25
 4 3 l 25
 4 2 l 25
2 1 m 25
 1 1 l 25
 1 2 l 25
 2 2 l 25
 2 1 l 25
0 4 m 25
 1 4 l 25
 1 3 l 25
 0 3 l 25
 0 4 l 25
4 5.099609375 m 1
 4 6 l 1
 5 6 l 25
 5 5.099609375 l 25
 4 5.099609375 l 1
2 4 m 25
 2 5.099609375 l 25
 3 5.099609375 l 25
 3 4 l 25
 2 4 l 25
3 7 m 25
 3 8 l 25
 4 8 l 25
 4 7 l 25
 3 7 l 25
1 7 m 25
 1 6 l 25
 2 6 l 25
 2 7 l 25
 1 7 l 25
0 9 m 25
 1 9 l 25
 1 8 l 25
 0 8 l 25
 0 9 l 25
EndSplineSet
EndChar

StartChar: shade
Encoding: 9618 9618 272
Width: 5
Flags: HW
LayerCount: 2
Fore
SplineSet
2 0 m 25
 2 -1 l 25
 4 -1 l 25
 4 0 l 25
 2 0 l 25
3 2 m 25
 1 2 l 25
 1 1 l 25
 3 1 l 25
 3 2 l 25
2 4 m 25
 0 4 l 25
 0 3 l 25
 2 3 l 25
 2 4 l 25
0 5.099609375 m 25
 0 6 l 25
 1 6 l 25
 1 5.099609375 l 25
 0 5.099609375 l 25
4 5.099609375 m 1
 4 6 l 1
 5 6 l 29
 5 5.099609375 l 29
 4 5.099609375 l 1
3 7 m 1
 3 8 l 1
 5 8 l 29
 5 7 l 29
 3 7 l 1
0 0 m 25
 0 1 l 25
 1 1 l 25
 1 0 l 25
 0 0 l 25
4 0 m 1
 4 1 l 1
 5 1 l 29
 5 0 l 29
 4 0 l 1
3 2 m 1
 3 3 l 1
 5 3 l 29
 5 2 l 29
 3 2 l 1
2 4 m 25
 2 5.099609375 l 25
 4 5.099609375 l 25
 4 4 l 25
 2 4 l 25
1 6 m 25
 1 7 l 25
 3 7 l 25
 3 6 l 25
 1 6 l 25
0 9 m 25
 2 9 l 25
 2 8 l 25
 0 8 l 25
 0 9 l 25
EndSplineSet
EndChar

StartChar: dkshade
Encoding: 9619 9619 273
Width: 5
Flags: HW
LayerCount: 2
Fore
SplineSet
2 -1 m 1
 2 0 l 25
 4 0 l 25
 4 1 l 1
 5 1 l 25
 5 -1 l 25
 2 -1 l 1
0 1 m 25
 1 1 l 25
 1 2 l 25
 3 2 l 25
 3 3 l 1
 5 3 l 25
 5 2 l 25
 4 2 l 1
 4 1 l 25
 2 1 l 25
 2 0 l 25
 0 0 l 25
 0 1 l 25
0 3 m 25
 0 4 l 25
 2 4 l 25
 2 5.099609375 l 25
 4 5.099609375 l 25
 4 6 l 1
 5 6 l 25
 5 4 l 25
 3 4 l 1
 3 3 l 25
 1 3 l 25
 1 2 l 25
 0 2 l 25
 0 3 l 25
0 6 m 25
 1 6 l 25
 1 7 l 25
 3 7 l 25
 3 8 l 1
 5 8 l 25
 5 7 l 25
 4 7 l 1
 4 6 l 25
 2 6 l 25
 2 5.099609375 l 25
 0 5.099609375 l 25
 0 6 l 25
0 9 m 25
 3 9 l 25
 3 8 l 25
 1 8 l 25
 1 7 l 25
 0 7 l 25
 0 9 l 25
EndSplineSet
EndChar

StartChar: uni2596
Encoding: 9622 9622 274
Width: 5
Flags: HW
LayerCount: 2
Fore
SplineSet
0 -1 m 25
 0 4 l 25
 3 4 l 25
 3 -1 l 25
 0 -1 l 25
EndSplineSet
EndChar

StartChar: uni2597
Encoding: 9623 9623 275
Width: 5
Flags: HW
LayerCount: 2
Fore
SplineSet
3 -1 m 1
 3 4 l 1
 5 4 l 29
 5 -1 l 29
 3 -1 l 1
EndSplineSet
EndChar

StartChar: uni2598
Encoding: 9624 9624 276
Width: 4
Flags: HW
LayerCount: 2
Fore
SplineSet
0 9 m 25
 3 9 l 25
 3 4 l 25
 0 4 l 25
 0 9 l 25
EndSplineSet
EndChar

StartChar: uni2599
Encoding: 9625 9625 277
Width: 5
Flags: HW
LayerCount: 2
Fore
SplineSet
0 9 m 25
 3 9 l 25
 3 4 l 1
 5 4 l 29
 5 -1 l 29
 0 -1 l 1
 0 9 l 25
EndSplineSet
EndChar

StartChar: uni259A
Encoding: 9626 9626 278
Width: 5
Flags: HW
LayerCount: 2
Fore
SplineSet
0 9 m 25
 3 9 l 25
 3 4 l 1
 5 4 l 29
 5 -1 l 29
 3 -1 l 1
 3 4 l 25
 0 4 l 25
 0 9 l 25
EndSplineSet
EndChar

StartChar: uni259B
Encoding: 9627 9627 279
Width: 5
Flags: HW
LayerCount: 2
Fore
SplineSet
0 -1 m 25
 0 9 l 1
 5 9 l 1
 5 4 l 1
 3 4 l 1
 3 -1 l 25
 0 -1 l 25
EndSplineSet
EndChar

StartChar: uni259C
Encoding: 9628 9628 280
Width: 5
Flags: HW
LayerCount: 2
Fore
SplineSet
0 9 m 1
 0 4 l 1
 3 4 l 25
 3 -1 l 1
 5 -1 l 5
 5 9 l 1
 0 9 l 1
EndSplineSet
EndChar

StartChar: uni259D
Encoding: 9629 9629 281
Width: 5
Flags: HW
LayerCount: 2
Fore
SplineSet
3 9 m 1
 3 4 l 1
 5 4 l 1
 5 9 l 5
 3 9 l 1
EndSplineSet
EndChar

StartChar: uni259E
Encoding: 9630 9630 282
Width: 5
Flags: HW
LayerCount: 2
Fore
SplineSet
0 -1 m 1
 0 5 l 1
 3 5 l 1
 3 9 l 1
 5 9 l 1
 5 5 l 1
 3 5 l 1
 3 -1 l 1
 0 -1 l 1
EndSplineSet
EndChar

StartChar: uni259F
Encoding: 9631 9631 283
Width: 5
Flags: HW
LayerCount: 2
Fore
SplineSet
0 -1 m 1
 0 4 l 1
 3 4 l 29
 3 9 l 1
 5 9 l 25
 5 -1 l 25
 0 -1 l 1
EndSplineSet
EndChar

StartChar: triagup
Encoding: 9650 9650 284
Width: 5
Flags: HW
HStem: -12 20G<2 3> -1 3<0 1 4 5>
VStem: 1 3<2 5.09961>
LayerCount: 2
Fore
SplineSet
0 -1 m 1x60
 0 2 l 25
 1 2 l 25x60
 1 5.099609375 l 25
 2 5.099609375 l 25
 2 8 l 25
 3 8 l 25xa0
 3 5.099609375 l 25
 4 5.099609375 l 25
 4 2 l 1
 5 2 l 25
 5 -1 l 25
 0 -1 l 1x60
EndSplineSet
EndChar

StartChar: uni25B6
Encoding: 9654 9654 285
Width: 5
Flags: HW
LayerCount: 2
Fore
SplineSet
0 9 m 25
 1 9 l 25
 1 8 l 25
 2 8 l 25
 2 7 l 25
 3 7 l 25
 3 6 l 25
 4 6 l 25
 4 5.099609375 l 1
 5 5.099609375 l 29
 5 3 l 29
 4 3 l 1
 4 2 l 25
 3 2 l 25
 3 1 l 25
 2 1 l 25
 2 0 l 25
 1 0 l 25
 1 -1 l 25
 0 -1 l 25
 0 9 l 25
EndSplineSet
EndChar

StartChar: triagdn
Encoding: 9660 9660 286
Width: 5
Flags: HW
LayerCount: 2
Fore
SplineSet
0 9 m 1
 0 6 l 25
 1 6 l 25
 1 3 l 25
 2 3 l 25
 2 0 l 25
 3 0 l 25
 3 3 l 25
 4 3 l 25
 4 6 l 1
 5 6 l 29
 5 9 l 29
 0 9 l 1
EndSplineSet
EndChar

StartChar: uni25C0
Encoding: 9664 9664 287
Width: 5
Flags: HW
LayerCount: 2
Fore
SplineSet
5 9 m 29
 4 9 l 1
 4 8 l 25
 3 8 l 25
 3 7 l 25
 2 7 l 25
 2 6 l 25
 1 6 l 25
 1 5.099609375 l 25
 0 5.099609375 l 25
 0 3 l 25
 1 3 l 25
 1 2 l 25
 2 2 l 25
 2 1 l 25
 3 1 l 25
 3 0 l 25
 4 0 l 25
 4 -1 l 1
 5 -1 l 29
 5 9 l 29
EndSplineSet
EndChar

StartChar: uni25E2
Encoding: 9698 9698 288
Width: 5
Flags: HW
LayerCount: 2
Fore
SplineSet
1 -1 m 1
 1 1 l 25
 2 1 l 25
 2 3 l 25
 3 3 l 25
 3 5.099609375 l 25
 4 5.099609375 l 25
 4 7 l 1
 5 7 l 1
 5 -1 l 5
 1 -1 l 1
EndSplineSet
EndChar

StartChar: uni25E3
Encoding: 9699 9699 289
Width: 5
Flags: HW
LayerCount: 2
Fore
SplineSet
0 9 m 1
 1 9 l 25
 1 7 l 25
 2 7 l 25
 2 5.099609375 l 25
 3 5.099609375 l 25
 3 3 l 25
 4 3 l 25
 4 1 l 1
 5 1 l 1
 5 -1 l 1
 0 -1 l 29
 0 9 l 1
EndSplineSet
EndChar

StartChar: uni25E4
Encoding: 9700 9700 290
Width: 5
Flags: HW
LayerCount: 2
Fore
SplineSet
5 9 m 29
 5 7 l 29
 4 7 l 1
 4 5.099609375 l 25
 3 5.099609375 l 25
 3 3 l 25
 2 3 l 25
 2 1 l 25
 1 1 l 25
 1 -1 l 25
 0 -1 l 25
 0 9 l 1
 5 9 l 29
EndSplineSet
EndChar

StartChar: uni25E5
Encoding: 9701 9701 291
Width: 5
Flags: HW
LayerCount: 2
Fore
SplineSet
1 9 m 1
 1 7 l 25
 2 7 l 25
 2 5.099609375 l 25
 3 5.099609375 l 25
 3 3 l 25
 4 3 l 25
 4 1 l 1
 5 1 l 1
 5 9 l 5
 1 9 l 1
EndSplineSet
EndChar

StartChar: smileface
Encoding: 9786 9786 292
Width: 5
Flags: HW
LayerCount: 2
Fore
SplineSet
1 8 m 29
 1 6 l 25
 2 6 l 25
 2 4 l 25
 1 4 l 25
 1 3 l 25
 4 3 l 25
 4 4 l 25
 3 4 l 25
 3 6 l 25
 4 6 l 25
 4 8 l 25
 1 8 l 29
1 0 m 25
 4 0 l 25
 4 2 l 25
 3 2 l 25
 3 1 l 25
 2 1 l 25
 2 2 l 25
 1 2 l 25
 1 0 l 25
1 -1 m 25
 1 0 l 25
 0 0 l 25
 0 8 l 25
 1 8 l 25
 1 9 l 25
 4 9 l 25
 4 8 l 1
 5 8 l 25
 5 0 l 25
 4 0 l 1
 4 -1 l 25
 1 -1 l 25
EndSplineSet
EndChar

StartChar: invsmileface
Encoding: 9787 9787 293
Width: 5
Flags: HW
LayerCount: 2
Fore
SplineSet
4 4 m 29
 4 6 l 29
 3 6 l 29
 3 4 l 29
 4 4 l 29
2 4 m 29
 2 6 l 29
 1 6 l 29
 1 4 l 29
 2 4 l 29
4 3 m 29
 1 3 l 29
 1 2 l 29
 2 2 l 29
 2 1 l 29
 3 1 l 29
 3 2 l 29
 4 2 l 29
 4 3 l 29
1 -1 m 29
 1 0 l 29
 0 0 l 29
 0 8 l 29
 1 8 l 29
 1 9 l 5
 4 9 l 29
 4 8 l 5
 5 8 l 29
 5 0 l 29
 4 0 l 5
 4 -1 l 29
 1 -1 l 29
EndSplineSet
EndChar

StartChar: sun
Encoding: 9788 9788 294
Width: 5
Flags: HW
LayerCount: 2
Fore
SplineSet
3 2 m 25
 3 3 l 25
 4 3 l 25
 4 4 l 25
 3 4 l 25
 3 5.099609375 l 25
 2 5.099609375 l 25
 2 4 l 25
 1 4 l 25
 1 3 l 25
 2 3 l 25
 2 2 l 25
 3 2 l 25
2 0 m 25
 2 2 l 25
 1 2 l 25
 1 1 l 25
 0 1 l 25
 0 2 l 25
 1 2 l 25
 1 3 l 25
 0 3 l 25
 0 4 l 25
 1 4 l 25
 1 5.099609375 l 25
 0 5.099609375 l 25
 0 6 l 25
 1 6 l 25
 1 5.099609375 l 25
 2 5.099609375 l 25
 2 7 l 25
 3 7 l 25
 3 5.099609375 l 25
 4 5.099609375 l 25
 4 6 l 1
 5 6 l 29
 5 5.099609375 l 29
 4 5.099609375 l 1
 4 4 l 1
 5 4 l 29
 5 3 l 29
 4 3 l 1
 4 2 l 1
 5 2 l 29
 5 1 l 29
 4 1 l 1
 4 2 l 25
 3 2 l 25
 3 0 l 25
 2 0 l 25
EndSplineSet
EndChar

StartChar: female
Encoding: 9792 9792 295
Width: 5
Flags: HW
LayerCount: 2
Fore
SplineSet
1 8 m 25
 1 4 l 25
 4 4 l 25
 4 8 l 25
 1 8 l 25
0 8 m 25
 1 8 l 25
 1 9 l 25
 4 9 l 25
 4 8 l 1
 5 8 l 29
 5 4 l 29
 4 4 l 1
 4 3 l 25
 3 3 l 25
 3 2 l 1
 5 2 l 29
 5 1 l 29
 3 1 l 1
 3 -1 l 25
 2 -1 l 25
 2 1 l 25
 0 1 l 25
 0 2 l 25
 2 2 l 25
 2 3 l 25
 1 3 l 25
 1 4 l 25
 0 4 l 25
 0 8 l 25
EndSplineSet
EndChar

StartChar: male
Encoding: 9794 9794 296
Width: 5
Flags: HW
LayerCount: 2
Fore
SplineSet
1 0 m 1
 4 0 l 1
 4 4 l 1
 1 4 l 1
 1 0 l 1
1 0 m 1
 0 0 l 1
 0 5.099609375 l 1
 1 5.099609375 l 1
 1 6 l 1
 2 6 l 1
 2 7 l 1
 3 7 l 1
 3 8 l 1
 2 8 l 1
 2 9 l 1
 5 9 l 5
 5 6 l 5
 4 6 l 1
 4 7 l 1
 3 7 l 1
 3 6 l 1
 2 6 l 1
 2 5.099609375 l 1
 4 5.099609375 l 1
 4 4 l 1
 5 4 l 5
 5 0 l 5
 4 0 l 1
 4 -1 l 1
 1 -1 l 1
 1 0 l 1
EndSplineSet
EndChar

StartChar: spade
Encoding: 9824 9824 297
Width: 5
Flags: HW
LayerCount: 2
Fore
SplineSet
2 1 m 25
 0 1 l 25
 0 5.099609375 l 25
 1 5.099609375 l 25
 1 7 l 25
 2 7 l 25
 2 9 l 25
 3 9 l 25
 3 7 l 25
 4 7 l 25
 4 5.099609375 l 1
 5 5.099609375 l 25
 5 1 l 25
 3 1 l 1
 3 2 l 29
 2 2 l 29
 2 1 l 25
1 -1 m 25
 1 0 l 25
 2 0 l 25
 2 1 l 25
 3 1 l 25
 3 0 l 25
 4 0 l 25
 4 -1 l 25
 1 -1 l 25
EndSplineSet
EndChar

StartChar: club
Encoding: 9827 9827 298
Width: 5
Flags: HW
LayerCount: 2
Fore
SplineSet
1 -1 m 1
 1 0 l 1
 2 0 l 1
 2 1 l 1
 3 1 l 1
 3 0 l 1
 4 0 l 1
 4 -1 l 1
 1 -1 l 1
3 1 m 1
 4 1 l 1
 4 2 l 1
 5 2 l 1
 5 4 l 1
 4 4 l 1
 4 5.099609375 l 1
 3 5.099609375 l 1
 3 4 l 1
 2 4 l 1
 2 5.099609375 l 1
 1 5.099609375 l 1
 1 4 l 1
 0 4 l 1
 0 2 l 1
 1 2 l 1
 1 1 l 1
 2 1 l 1
 2 2 l 1
 3 2 l 1
 3 1 l 1
3 5.099609375 m 1
 2 5.099609375 l 1
 2 6 l 1
 1 6 l 1
 1 8 l 1
 2 8 l 1
 2 9 l 1
 3 9 l 1
 3 8 l 1
 4 8 l 1
 4 6 l 1
 3 6 l 1
 3 5.099609375 l 1
EndSplineSet
EndChar

StartChar: heart
Encoding: 9829 9829 299
Width: 5
Flags: HW
LayerCount: 2
Fore
SplineSet
0 9 m 25
 2 9 l 25
 2 7 l 25
 3 7 l 25
 3 9 l 1
 5 9 l 25
 5 3 l 25
 4 3 l 1
 4 1 l 25
 3 1 l 25
 3 -1 l 25
 2 -1 l 25
 2 1 l 25
 1 1 l 25
 1 3 l 25
 0 3 l 25
 0 9 l 25
EndSplineSet
EndChar

StartChar: diamond
Encoding: 9830 9830 300
Width: 5
Flags: HW
LayerCount: 2
Fore
SplineSet
2 -1 m 25
 2 1 l 25
 1 1 l 25
 1 3 l 25
 0 3 l 25
 0 5.099609375 l 25
 1 5.099609375 l 25
 1 7 l 25
 2 7 l 25
 2 9 l 25
 3 9 l 25
 3 7 l 25
 4 7 l 25
 4 5.099609375 l 1
 5 5.099609375 l 25
 5 3 l 25
 4 3 l 1
 4 1 l 25
 3 1 l 25
 3 -1 l 25
 2 -1 l 25
EndSplineSet
EndChar

StartChar: uni2669
Encoding: 9833 9833 301
Width: 5
Flags: HW
LayerCount: 2
Fore
SplineSet
1 0 m 25
 1 1 l 25
 0 1 l 25
 0 2 l 25
 1 2 l 25
 1 3 l 25
 2 3 l 25
 2 9 l 1
 5 9 l 29
 5 8 l 5
 3 8 l 1
 3 1 l 25
 2 1 l 25
 2 0 l 25
 1 0 l 25
EndSplineSet
EndChar

StartChar: musicalnotedbl
Encoding: 9835 9835 302
Width: 5
Flags: HW
LayerCount: 2
Fore
SplineSet
2 1 m 25
 0 1 l 25
 0 3 l 25
 1 3 l 25
 1 9 l 1
 5 9 l 25
 5 1 l 25
 3 1 l 1
 3 3 l 25
 4 3 l 25
 4 8 l 25
 2 8 l 25
 2 1 l 25
EndSplineSet
EndChar

StartChar: invbullet
Encoding: 9688 9688 303
Width: 5
Flags: HW
LayerCount: 2
Fore
SplineSet
2 5 m 29
 2 4 l 25
 1 4 l 25
 1 3 l 25
 2 3 l 25
 2 2 l 25
 3 2 l 25
 3 3 l 25
 4 3 l 25
 4 4 l 25
 3 4 l 25
 3 5 l 25
 2 5 l 29
0 -1 m 25
 0 9 l 25
 5 9 l 25
 5 -1 l 25
 0 -1 l 25
EndSplineSet
EndChar

StartChar: uni2016
Encoding: 8214 8214 304
Width: 5
Flags: HW
LayerCount: 2
Fore
SplineSet
3 -1 m 29
 3 9 l 25
 4 9 l 25
 4 -1 l 29
 3 -1 l 29
1 -1 m 29
 1 9 l 25
 2 9 l 25
 2 -1 l 29
 1 -1 l 29
EndSplineSet
EndChar

StartChar: uni256D
Encoding: 9581 9581 305
Width: 5
Flags: HW
LayerCount: 2
Fore
SplineSet
5 5 m 29
 3 5 l 29
 3 4 l 29
 2 4 l 5
 2 2 l 5
 1 2 l 5
 1 -1 l 5
 3 -1 l 5
 3 1 l 5
 4 1 l 5
 4 3 l 5
 5 3 l 29
 5 5 l 29
EndSplineSet
EndChar

StartChar: uni256E
Encoding: 9582 9582 306
Width: 5
Flags: HW
LayerCount: 2
Fore
SplineSet
0 5 m 5
 1 5 l 5
 1 4 l 5
 2 4 l 5
 2 2 l 5
 3 2 l 5
 3 -1 l 5
 1 -1 l 5
 1 1 l 5
 0 1 l 5
 0 3 l 5
 0 5 l 5
EndSplineSet
EndChar

StartChar: uni256F
Encoding: 9583 9583 307
Width: 5
Flags: HW
LayerCount: 2
Fore
SplineSet
0 3 m 5
 1 3 l 5
 1 4 l 5
 2 4 l 5
 2 6 l 5
 3 6 l 5
 3 9 l 5
 1 9 l 5
 1 7 l 5
 0 7 l 5
 0 5 l 5
 0 3 l 5
EndSplineSet
EndChar

StartChar: uni2570
Encoding: 9584 9584 308
Width: 5
Flags: HW
LayerCount: 2
Fore
SplineSet
5 3 m 29
 3 3 l 29
 3 4 l 29
 2 4 l 5
 2 6 l 5
 1 6 l 5
 1 9 l 5
 3 9 l 5
 3 7 l 5
 4 7 l 5
 4 5 l 5
 5 5 l 29
 5 3 l 29
EndSplineSet
EndChar

StartChar: uni2581
Encoding: 9601 9601 309
Width: 5
Flags: HW
LayerCount: 2
Fore
SplineSet
0 -1 m 1
 0 0 l 5
 5 0 l 29
 5 -1 l 25
 0 -1 l 1
EndSplineSet
EndChar

StartChar: uni2583
Encoding: 9603 9603 310
Width: 5
Flags: HW
LayerCount: 2
Fore
SplineSet
0 -1 m 1
 0 2 l 5
 5 2 l 29
 5 -1 l 25
 0 -1 l 1
EndSplineSet
EndChar

StartChar: uni2585
Encoding: 9605 9605 311
Width: 5
Flags: HW
LayerCount: 2
Fore
SplineSet
0 -1 m 1
 0 5 l 5
 5 5 l 29
 5 -1 l 25
 0 -1 l 1
EndSplineSet
EndChar

StartChar: uni2586
Encoding: 9606 9606 312
Width: 5
Flags: HW
LayerCount: 2
Fore
SplineSet
0 -1 m 1
 0 6 l 5
 5 6 l 29
 5 -1 l 25
 0 -1 l 1
EndSplineSet
EndChar

StartChar: uni2587
Encoding: 9607 9607 313
Width: 5
Flags: HW
LayerCount: 2
Fore
SplineSet
0 -1 m 1
 0 7 l 5
 5 7 l 29
 5 -1 l 25
 0 -1 l 1
EndSplineSet
EndChar

StartChar: H18533
Encoding: 9679 9679 314
Width: 5
Flags: HW
LayerCount: 2
Fore
SplineSet
1 -1 m 29
 1 0 l 29
 0 0 l 29
 0 8 l 29
 1 8 l 29
 1 9 l 5
 4 9 l 29
 4 8 l 5
 5 8 l 29
 5 0 l 29
 4 0 l 5
 4 -1 l 29
 1 -1 l 29
EndSplineSet
EndChar

StartChar: uni25D6
Encoding: 9686 9686 315
Width: 5
Flags: HW
LayerCount: 2
Fore
SplineSet
3 -1 m 5
 3 0 l 29
 2 0 l 5
 2 2 l 4
 1 2 l 4
 1 6 l 4
 2 6 l 5
 2 8 l 5
 3 8 l 29
 3 9 l 5
 5 9 l 29
 5 -1 l 29
 3 -1 l 5
EndSplineSet
EndChar

StartChar: uni25D7
Encoding: 9687 9687 316
Width: 5
Flags: HW
LayerCount: 2
Fore
SplineSet
0 -1 m 29
 0 9 l 5
 2 9 l 25
 2 8 l 1
 3 8 l 1
 3 6 l 0
 4 6 l 0
 4 2 l 0
 3 2 l 0
 3 0 l 1
 2 0 l 1
 2 -1 l 25
 0 -1 l 29
EndSplineSet
EndChar

StartChar: circle
Encoding: 9675 9675 317
Width: 5
Flags: HW
LayerCount: 2
Fore
SplineSet
4 8 m 1
 5 8 l 1
 5 0 l 1
 4 0 l 1
 4 -1 l 1
 1 -1 l 1
 1 0 l 1
 0 0 l 1
 0 8 l 1
 1 8 l 1
 1 9 l 1
 4 9 l 1
 4 8 l 1
4 8 m 1
 1 8 l 1
 1 0 l 1
 4 0 l 1
 4 8 l 1
EndSplineSet
EndChar

StartChar: invcircle
Encoding: 9689 9689 318
Width: 5
Flags: HW
LayerCount: 2
Fore
SplineSet
0 -1 m 29
 5 -1 l 29
 5 2 l 29
 4 2 l 29
 4 1 l 29
 3 1 l 29
 3 0 l 29
 2 0 l 29
 2 1 l 29
 1 1 l 29
 1 2 l 29
 0 2 l 29
 0 -1 l 29
1 4 m 25
 1 3 l 25
 2 3 l 25
 2 2 l 25
 3 2 l 25
 3 3 l 25
 4 3 l 25
 4 4 l 25
 3 4 l 25
 3 5 l 25
 2 5 l 25
 2 4 l 25
 1 4 l 25
0 9 m 25
 5 9 l 25
 5 5 l 25
 4 5 l 25
 4 6 l 25
 3 6 l 25
 3 7 l 25
 2 7 l 25
 2 6 l 25
 1 6 l 25
 1 5 l 25
 0 5 l 25
 0 9 l 25
EndSplineSet
EndChar

StartChar: SF100000
Encoding: 9472 9472 319
Width: 5
Flags: HW
LayerCount: 2
Fore
SplineSet
0 5 m 29
 5 5 l 29
 5 3 l 29
 0 3 l 29
 0 5 l 29
EndSplineSet
EndChar

StartChar: SF110000
Encoding: 9474 9474 320
Width: 5
Flags: HW
LayerCount: 2
Fore
SplineSet
1 9 m 29
 3 9 l 29
 3 -1 l 29
 1 -1 l 29
 1 9 l 29
EndSplineSet
EndChar

StartChar: SF050000
Encoding: 9532 9532 321
Width: 5
Flags: HW
LayerCount: 2
Fore
SplineSet
1 9 m 5
 3 9 l 5
 3 5 l 5
 5 5 l 5
 5 3 l 5
 3 3 l 5
 3 -1 l 5
 1 -1 l 5
 1 3 l 5
 0 3 l 5
 0 5 l 5
 1 5 l 5
 1 9 l 5
EndSplineSet
EndChar

StartChar: uni2630
Encoding: 9776 9776 322
Width: 5
Flags: HW
LayerCount: 2
Fore
SplineSet
0 1 m 29
 5 1 l 29
 5 0 l 29
 0 0 l 29
 0 1 l 29
0 4 m 29
 5 4 l 29
 5 3 l 29
 0 3 l 29
 0 4 l 29
0 7 m 29
 5 7 l 29
 5 6 l 29
 0 6 l 29
 0 7 l 29
EndSplineSet
EndChar

StartChar: uni2263
Encoding: 8803 8803 323
Width: 5
Flags: HWO
LayerCount: 2
Fore
SplineSet
0 9 m 25
 5 9 l 25
 5 8 l 25
 0 8 l 25
 0 9 l 25
0 1 m 25
 5 1 l 25
 5 0 l 25
 0 0 l 25
 0 1 l 25
0 4 m 25
 5 4 l 25
 5 3 l 25
 0 3 l 25
 0 4 l 25
0 7 m 25
 5 7 l 25
 5 6 l 25
 0 6 l 25
 0 7 l 25
EndSplineSet
EndChar
